#N canvas 694 92 1314 1100 10;
#X obj 341 509 dac~;
#X obj 341 389 osc~ 440;
#X obj 347 434 *~ 0.5;
#X obj 342 167 r TKIN;
#X obj 304 313 * 500;
#X connect 1 0 2 0;
#X connect 2 0 0 0;
#X connect 2 0 0 1;
#X connect 3 0 4 0;
#X connect 4 0 1 0;
