#N canvas 134 60 1726 1061 10;
#X obj 1466 53 r N1;
#X obj 1466 79 r L1;
#X obj 1466 105 r Y1;
#X obj 1527 161 r X1.1;
#X obj 1527 189 r X1.2;
#X obj 1527 218 r X1.3;
#X obj 1581 188 r S1.2;
#X obj 1581 217 r S1.3;
#X text 1498 53 Number of fingers pressed;
#X text 1499 79 Last finger pressed;
#X text 1501 106 Overall Y position;
#X text 1579 139 Touch size;
#X text 1467 163 Finger 1;
#X text 1467 190 Finger 2;
#X text 1468 219 Finger 3;
#X text 1463 29 SENSOR 1;
#X text 1469 247 -------------------------------;
#X text 1525 139 X pos;
#X obj 170 503 dac~, f 6;
#X obj 14 36 adc~;
#X text 1463 124 -------------------------------;
#X obj 170 188 mtof;
#X obj 170 210 t b f;
#X obj 170 254 /;
#X msg 170 232 1;
#X obj 170 276 * 1000;
#X obj 34 447 delwrite~ deli1 1000;
#X obj 170 299 vd~ deli1 12;
#X obj 1580 161 r S1.1;
#X obj 170 323 lop~ 6000;
#X obj 170 347 *~ 0.95;
#X obj 34 368 *~ 1;
#X obj 55 274 > 0;
#X obj 55 226 r N1;
#X obj 533 599 dac~ 27 28;
#X obj 590 573 *~;
#X obj 605 546 line~;
#X obj 590 444 osc~ 5000;
#X msg 605 521 0, f 2;
#X msg 632 521 1, f 2;
#X obj 605 494 sel 0;
#X msg 170 165 36;
#X obj 170 140 loadbang;
#X obj 55 251 change 1;
#X floatatom 361 193 5 0 0 0 - - -, f 5;
#X floatatom 544 193 5 0 0 0 - - -, f 5;
#X obj 396 193 t b;
#X obj 361 216 expr 1.4142 * sqrt(($f1-0.5)*($f1-0.5) + ($f2-0.5)*($f2-0.5))
, f 31;
#X obj 361 315 sig~;
#X obj 265 289 expr 1 - $f1;
#X obj 361 291 + 65;
#X obj 410 268 * 8;
#X obj 55 297 sel 0;
#X msg 55 342 0, f 4;
#X msg 82 318 1;
#X obj 170 405 vcf~, f 11;
#X obj 455 150 r N1;
#X obj 361 167 spigot;
#X obj 543 167 spigot;
#X obj 361 142 r X1.1;
#X obj 543 142 r Y1;
#X obj 410 291 expr 8 - $f1;
#X obj 361 267 * 950;
#X obj 265 310 / 10;
#X obj 265 330 + 0.9;
#X obj 605 468 r N1;
#X obj 35 89 delwrite~ delboy 15;
#X obj 34 115 delread~ delboy 15;
#X obj 202 473 rev2~ 75 70 500 20;
#X obj 201 165 r notes;
#N canvas 9 101 881 441 COMPRESSION1 0;
#X obj 240 173 clip~ 0 1;
#X obj 240 217 lop~;
#N canvas 0 22 348 381 rms 0;
#X obj 59 54 env~ 512;
#X obj 59 79 dbtorms~;
#X obj 59 140 -~;
#X obj 59 188 /~;
#X obj 59 233 +~;
#X obj 20 114 +~ 0;
#X obj 59 263 /~;
#X obj 59 21 inlet~;
#X obj 59 287 outlet~;
#X obj 142 50 switch~;
#X obj 142 23 inlet;
#X obj 74 114 r thresh1;
#X obj 74 164 r ratio1;
#X obj 74 209 r thresh1;
#X connect 0 0 1 0;
#X connect 1 0 2 0;
#X connect 1 0 5 0;
#X connect 2 0 3 0;
#X connect 3 0 4 0;
#X connect 4 0 6 0;
#X connect 5 0 6 1;
#X connect 6 0 8 0;
#X connect 7 0 0 0;
#X connect 10 0 9 0;
#X connect 11 0 2 1;
#X connect 12 0 3 1;
#X connect 13 0 4 1;
#X restore 240 131 pd rms;
#N canvas 275 36 308 334 peak 0;
#X obj 54 49 abs~;
#X obj 54 106 -~;
#X obj 54 154 /~;
#X obj 54 199 +~;
#X obj 15 80 +~ 0;
#X obj 54 229 /~;
#X obj 54 21 inlet~;
#X obj 54 254 outlet~;
#X obj 142 50 switch~;
#X obj 142 23 inlet;
#X obj 69 82 r thresh1;
#X obj 69 130 r ratio1;
#X obj 69 175 r thresh1;
#X connect 0 0 4 0;
#X connect 0 0 1 0;
#X connect 1 0 2 0;
#X connect 2 0 3 0;
#X connect 3 0 5 0;
#X connect 4 0 5 1;
#X connect 5 0 7 0;
#X connect 6 0 0 0;
#X connect 9 0 8 0;
#X connect 10 0 1 1;
#X connect 11 0 2 1;
#X connect 12 0 3 1;
#X restore 290 131 pd peak;
#X obj 27 14 inlet~;
#X obj 225 249 *~;
#X text 273 217 Attack/Release;
#X text 253 248 Gain;
#X obj 225 345 *~;
#X obj 240 321 line~;
#X msg 240 297 \$1 5;
#X obj 273 99 == 0;
#X obj 273 74 t f f;
#X obj 393 152 + 100;
#X obj 393 175 dbtorms;
#X obj 463 152 swap 1;
#X obj 463 175 /;
#X obj 534 152 swap 100;
#X obj 534 175 /;
#X obj 604 152 + 100;
#X obj 604 175 dbtorms;
#X obj 225 373 outlet~;
#X obj 27 142 delwrite~ COMP1 500;
#X obj 28 192 delread~ COMP1 0;
#X obj 261 194 r response1;
#X obj 240 274 r gain1;
#X obj 273 48 r rmspeak1;
#X obj 393 200 s thresh1;
#X obj 463 200 s ratio1;
#X obj 534 200 s response1;
#X obj 604 200 s gain1;
#X obj 745 152 s lookahead1;
#X obj 28 167 r lookahead1;
#X obj 393 66 loadbang;
#X obj 393 123 route threshold ratio response gain rmspeak lookahead
, f 71;
#X obj 675 152 s rmspeak1;
#X msg 393 94 threshold -20 \, ratio 10 \, response 40 \, gain 20 \,
rmspeak 0 \, lookahead 0, f 67;
#X connect 0 0 1 0;
#X connect 1 0 5 1;
#X connect 2 0 0 0;
#X connect 3 0 0 0;
#X connect 4 0 2 0;
#X connect 4 0 3 0;
#X connect 4 0 22 0;
#X connect 5 0 8 0;
#X connect 8 0 21 0;
#X connect 9 0 8 1;
#X connect 10 0 9 0;
#X connect 11 0 2 1;
#X connect 12 0 11 0;
#X connect 12 1 3 1;
#X connect 13 0 14 0;
#X connect 14 0 27 0;
#X connect 15 0 16 0;
#X connect 15 1 16 1;
#X connect 16 0 28 0;
#X connect 17 0 18 0;
#X connect 17 1 18 1;
#X connect 18 0 29 0;
#X connect 19 0 20 0;
#X connect 20 0 30 0;
#X connect 23 0 5 0;
#X connect 24 0 1 1;
#X connect 25 0 10 0;
#X connect 26 0 12 0;
#X connect 32 0 23 0;
#X connect 33 0 36 0;
#X connect 34 0 13 0;
#X connect 34 1 15 0;
#X connect 34 2 17 0;
#X connect 34 3 19 0;
#X connect 34 4 35 0;
#X connect 34 5 31 0;
#X connect 36 0 34 0;
#X restore 40 180 pd COMPRESSION1;
#N canvas 504 154 881 441 COMPRESSION2 0;
#X obj 240 173 clip~ 0 1;
#X obj 240 217 lop~;
#N canvas 0 22 348 381 rms 0;
#X obj 59 54 env~ 512;
#X obj 59 79 dbtorms~;
#X obj 59 140 -~;
#X obj 59 188 /~;
#X obj 59 233 +~;
#X obj 20 114 +~ 0;
#X obj 59 263 /~;
#X obj 59 21 inlet~;
#X obj 59 287 outlet~;
#X obj 142 50 switch~;
#X obj 142 23 inlet;
#X obj 74 114 r thresh2;
#X obj 74 164 r ratio2;
#X obj 74 209 r thresh2;
#X connect 0 0 1 0;
#X connect 1 0 2 0;
#X connect 1 0 5 0;
#X connect 2 0 3 0;
#X connect 3 0 4 0;
#X connect 4 0 6 0;
#X connect 5 0 6 1;
#X connect 6 0 8 0;
#X connect 7 0 0 0;
#X connect 10 0 9 0;
#X connect 11 0 2 1;
#X connect 12 0 3 1;
#X connect 13 0 4 1;
#X restore 240 131 pd rms;
#N canvas 275 36 308 334 peak 0;
#X obj 54 49 abs~;
#X obj 54 106 -~;
#X obj 54 154 /~;
#X obj 54 199 +~;
#X obj 15 80 +~ 0;
#X obj 54 229 /~;
#X obj 54 21 inlet~;
#X obj 54 254 outlet~;
#X obj 142 50 switch~;
#X obj 142 23 inlet;
#X obj 69 82 r thresh2;
#X obj 69 130 r ratio2;
#X obj 69 175 r thresh2;
#X connect 0 0 4 0;
#X connect 0 0 1 0;
#X connect 1 0 2 0;
#X connect 2 0 3 0;
#X connect 3 0 5 0;
#X connect 4 0 5 1;
#X connect 5 0 7 0;
#X connect 6 0 0 0;
#X connect 9 0 8 0;
#X connect 10 0 1 1;
#X connect 11 0 2 1;
#X connect 12 0 3 1;
#X restore 290 131 pd peak;
#X obj 27 14 inlet~;
#X obj 225 249 *~;
#X text 273 217 Attack/Release;
#X text 253 248 Gain;
#X obj 225 345 *~;
#X obj 240 321 line~;
#X msg 240 297 \$1 5;
#X obj 273 99 == 0;
#X obj 273 74 t f f;
#X obj 393 152 + 100;
#X obj 393 175 dbtorms;
#X obj 463 152 swap 1;
#X obj 463 175 /;
#X obj 534 152 swap 100;
#X obj 534 175 /;
#X obj 604 152 + 100;
#X obj 604 175 dbtorms;
#X obj 225 373 outlet~;
#X obj 393 66 loadbang;
#X obj 393 123 route threshold ratio response gain rmspeak lookahead
, f 71;
#X msg 393 94 threshold -20 \, ratio 10 \, response 40 \, gain 20 \,
rmspeak 0 \, lookahead 0, f 67;
#X obj 393 200 s thresh2;
#X obj 463 200 s ratio2;
#X obj 534 200 s response2;
#X obj 604 200 s gain2;
#X obj 675 152 s rmspeak2;
#X obj 745 152 s lookahead2;
#X obj 261 194 r response2;
#X obj 28 167 r lookahead2;
#X obj 273 48 r rmspeak2;
#X obj 240 274 r gain2;
#X obj 27 142 delwrite~ COMP2 500;
#X obj 28 192 delread~ COMP2 0;
#X connect 0 0 1 0;
#X connect 1 0 5 1;
#X connect 2 0 0 0;
#X connect 3 0 0 0;
#X connect 4 0 2 0;
#X connect 4 0 3 0;
#X connect 4 0 35 0;
#X connect 5 0 8 0;
#X connect 8 0 21 0;
#X connect 9 0 8 1;
#X connect 10 0 9 0;
#X connect 11 0 2 1;
#X connect 12 0 11 0;
#X connect 12 1 3 1;
#X connect 13 0 14 0;
#X connect 14 0 25 0;
#X connect 15 0 16 0;
#X connect 15 1 16 1;
#X connect 16 0 26 0;
#X connect 17 0 18 0;
#X connect 17 1 18 1;
#X connect 18 0 27 0;
#X connect 19 0 20 0;
#X connect 20 0 28 0;
#X connect 22 0 24 0;
#X connect 23 0 13 0;
#X connect 23 1 15 0;
#X connect 23 2 17 0;
#X connect 23 3 19 0;
#X connect 23 4 29 0;
#X connect 23 5 30 0;
#X connect 24 0 23 0;
#X connect 31 0 1 1;
#X connect 32 0 36 0;
#X connect 33 0 12 0;
#X connect 34 0 10 0;
#X connect 36 0 5 0;
#X restore 207 428 pd COMPRESSION2;
#X obj 34 144 vcf~, f 11;
#X obj 170 377 *~;
#X obj 111 290 t 1 0;
#X obj 35 65 *~ 4;
#X connect 19 1 34 0;
#X connect 19 1 75 0;
#X connect 21 0 22 0;
#X connect 22 0 24 0;
#X connect 22 1 23 1;
#X connect 23 0 25 0;
#X connect 24 0 23 0;
#X connect 25 0 27 0;
#X connect 27 0 29 0;
#X connect 29 0 30 0;
#X connect 30 0 26 0;
#X connect 30 0 73 0;
#X connect 31 0 26 0;
#X connect 32 0 52 0;
#X connect 33 0 43 0;
#X connect 35 0 34 1;
#X connect 36 0 35 1;
#X connect 37 0 35 0;
#X connect 38 0 36 0;
#X connect 39 0 36 0;
#X connect 40 0 38 0;
#X connect 40 1 39 0;
#X connect 41 0 21 0;
#X connect 42 0 41 0;
#X connect 43 0 32 0;
#X connect 44 0 47 0;
#X connect 45 0 46 0;
#X connect 45 0 47 1;
#X connect 46 0 44 0;
#X connect 47 0 49 0;
#X connect 47 0 51 0;
#X connect 47 0 62 0;
#X connect 48 0 55 1;
#X connect 49 0 63 0;
#X connect 50 0 48 0;
#X connect 51 0 61 0;
#X connect 52 0 53 0;
#X connect 52 1 54 0;
#X connect 52 1 74 0;
#X connect 53 0 31 1;
#X connect 54 0 31 1;
#X connect 55 0 18 0;
#X connect 55 0 68 0;
#X connect 55 0 18 1;
#X connect 56 0 57 1;
#X connect 56 0 58 1;
#X connect 57 0 44 0;
#X connect 58 0 45 0;
#X connect 59 0 57 0;
#X connect 60 0 58 0;
#X connect 61 0 55 2;
#X connect 62 0 50 0;
#X connect 63 0 64 0;
#X connect 64 0 30 1;
#X connect 65 0 40 0;
#X connect 67 0 72 0;
#X connect 68 0 18 0;
#X connect 68 0 18 1;
#X connect 69 0 41 0;
#X connect 71 0 18 0;
#X connect 71 0 18 1;
#X connect 71 0 68 0;
#X connect 72 0 31 0;
#X connect 73 0 55 0;
#X connect 74 0 73 1;
#X connect 74 1 73 1;
#X connect 75 0 66 0;
