#N canvas 694 92 1314 1100 10;
#X obj 168 550 dac~;
#X obj 168 430 osc~ 440;
#X obj 131 354 * 500;
#X obj 472 204 loadbang;
#X msg 410 228 set \$1;
#X msg 410 254 287;
#X obj 472 229 metro 1000;
#X obj 303 186 r TKIN0;
#X obj 573 155 r TKIN1;
#X obj 410 279 print TKIN0;
#X obj 651 215 loadbang;
#X msg 589 239 set \$1;
#X msg 589 265 287;
#X obj 651 240 metro 1000;
#X obj 589 290 print TKIN1;
#X obj 341 482 *~ 0.5;
#X obj 298 361 * 500;
#X obj 335 437 osc~ 880;
#X obj 174 475 *~ 0.25;
#X connect 1 0 18 0;
#X connect 2 0 1 0;
#X connect 3 0 6 0;
#X connect 4 0 5 0;
#X connect 5 0 9 0;
#X connect 6 0 5 0;
#X connect 7 0 2 0;
#X connect 7 0 4 0;
#X connect 8 0 11 0;
#X connect 8 0 16 0;
#X connect 10 0 13 0;
#X connect 11 0 12 0;
#X connect 12 0 14 0;
#X connect 13 0 12 0;
#X connect 15 0 0 0;
#X connect 15 0 0 1;
#X connect 16 0 17 0;
#X connect 17 0 15 0;
#X connect 18 0 0 0;
#X connect 18 0 0 1;
