#N canvas 413 81 1726 1061 10;
#X obj 1466 53 r N1;
#X obj 1466 79 r L1;
#X obj 1466 105 r Y1;
#X obj 1527 161 r X1.1;
#X obj 1527 189 r X1.2;
#X obj 1527 218 r X1.3;
#X obj 1581 188 r S1.2;
#X obj 1581 217 r S1.3;
#X text 1498 53 Number of fingers pressed;
#X text 1499 79 Last finger pressed;
#X text 1501 106 Overall Y position;
#X text 1579 139 Touch size;
#X text 1467 163 Finger 1;
#X text 1467 190 Finger 2;
#X text 1468 219 Finger 3;
#X text 1463 29 SENSOR 1;
#X text 1469 247 -------------------------------;
#X text 1525 139 X pos;
#X text 1507 295 Number of fingers pressed;
#X text 1508 321 Last finger pressed;
#X text 1510 348 Overall Y position;
#X text 1588 381 Touch size;
#X text 1476 405 Finger 1;
#X text 1476 432 Finger 2;
#X text 1477 461 Finger 3;
#X text 1472 366 -------------------------------;
#X text 1534 381 X pos;
#X text 1472 271 SENSOR 2;
#X obj 1475 295 r N2;
#X obj 1475 321 r L2;
#X obj 1475 347 r Y2;
#X obj 1536 403 r X2.1;
#X obj 1536 431 r X2.2;
#X obj 1536 460 r X2.3;
#X obj 1590 402 r S2.1;
#X obj 1590 430 r S2.2;
#X obj 1590 459 r S2.3;
#X text 1512 522 Number of fingers pressed;
#X text 1513 548 Last finger pressed;
#X text 1515 575 Overall Y position;
#X text 1593 608 Touch size;
#X text 1481 632 Finger 1;
#X text 1481 659 Finger 2;
#X text 1482 688 Finger 3;
#X text 1477 593 -------------------------------;
#X text 1539 608 X pos;
#X text 1519 748 Number of fingers pressed;
#X text 1520 774 Last finger pressed;
#X text 1522 801 Overall Y position;
#X text 1600 834 Touch size;
#X text 1488 858 Finger 1;
#X text 1488 885 Finger 2;
#X text 1489 914 Finger 3;
#X text 1484 819 -------------------------------;
#X text 1546 834 X pos;
#X text 1477 498 SENSOR 3;
#X text 1484 724 SENSOR 4;
#X obj 1480 522 r N3;
#X obj 1480 548 r L3;
#X obj 1480 574 r Y3;
#X obj 1541 630 r X3.1;
#X obj 1541 658 r X3.2;
#X obj 1541 687 r X3.3;
#X obj 1595 629 r S3.1;
#X obj 1595 657 r S3.2;
#X obj 1595 686 r S3.3;
#X obj 1487 748 r N4;
#X obj 1487 774 r L4;
#X obj 1487 800 r Y4;
#X obj 1548 856 r X4.1;
#X obj 1548 884 r X4.2;
#X obj 1547 913 r X4.3;
#X obj 1602 855 r S4.1;
#X obj 1602 883 r S4.2;
#X obj 1602 912 r S4.3;
#X obj 67 752 dac~, f 6;
#X obj 14 36 adc~;
#X text 1476 481 -------------------------------;
#X text 1480 705 -------------------------------;
#X text 1463 124 -------------------------------;
#X obj 101 322 mtof;
#X obj 101 344 t b f;
#X obj 101 388 /;
#X msg 101 366 1;
#X obj 101 410 * 1000;
#X obj 101 568 s~ output1;
#X obj 35 600 delwrite~ deli1 1000;
#X obj 101 433 vd~ deli1 12;
#X obj 1580 161 r S1.1;
#X obj 101 457 lop~ 6000;
#X obj 101 480 *~ 0.95;
#X obj 68 660 r~ output1;
#X obj 35 502 *~ 1;
#X obj 43 408 > 0;
#X obj 43 360 r N1;
#X obj 97 692 rev3~ 100 70 4000 0;
#X obj 429 69 dac~ 27 28;
#X obj 512 233 *~;
#X obj 536 204 line~;
#X obj 460 141 osc~ 5000;
#X msg 555 126 0;
#X msg 649 124 1;
#X obj 598 65 sel 0;
#X msg 101 299 36;
#X obj 101 268 loadbang;
#X obj 43 385 change 1;
#X obj 26 154 delwrite~ delboy 20;
#X obj 31 225 delread~ delboy 20;
#X floatatom 513 480 5 0 0 0 - - -, f 5;
#X floatatom 906 481 5 0 0 0 - - -, f 5;
#X obj 548 478 t b;
#X obj 513 503 expr 1.4142 * sqrt(($f1-0.5)*($f1-0.5) + ($f2-0.5)*($f2-0.5))
, f 66;
#X obj 101 513 vcf~, f 16;
#X obj 512 586 sig~;
#X obj 513 528 * 950;
#X obj 663 318 r N1;
#X obj 526 413 spigot;
#X obj 888 413 spigot;
#X obj 527 349 r X1.1;
#X obj 883 328 r Y1;
#X floatatom 389 707 5 0 0 0 - - -, f 5;
#X obj 385 630 expr 1 - $f1;
#X obj 386 659 / 20;
#X obj 31 113 *~ 2;
#X obj 512 562 + 65;
#X obj 389 729 + 0.9;
#X obj 662 596 * 8;
#X obj 661 626 expr 8 - $f1;
#X obj 527 376 pipe 5;
#X obj 883 367 pipe 5;
#X obj 43 431 sel 0;
#X msg 43 476 0, f 4;
#X msg 70 452 1;
#X connect 76 1 96 0;
#X connect 76 1 123 0;
#X connect 80 0 81 0;
#X connect 81 0 83 0;
#X connect 81 1 82 1;
#X connect 82 0 84 0;
#X connect 83 0 82 0;
#X connect 84 0 87 0;
#X connect 87 0 89 0;
#X connect 89 0 90 0;
#X connect 90 0 86 0;
#X connect 90 0 112 0;
#X connect 91 0 75 0;
#X connect 91 0 75 1;
#X connect 91 0 95 0;
#X connect 92 0 86 0;
#X connect 93 0 130 0;
#X connect 94 0 105 0;
#X connect 94 0 102 0;
#X connect 95 0 75 0;
#X connect 95 0 75 1;
#X connect 98 0 97 1;
#X connect 99 0 97 0;
#X connect 100 0 98 0;
#X connect 101 0 98 0;
#X connect 102 0 100 0;
#X connect 102 1 101 0;
#X connect 103 0 80 0;
#X connect 104 0 103 0;
#X connect 105 0 93 0;
#X connect 107 0 92 0;
#X connect 108 0 111 0;
#X connect 109 0 110 0;
#X connect 109 0 111 1;
#X connect 110 0 108 0;
#X connect 111 0 114 0;
#X connect 111 0 121 0;
#X connect 111 0 126 0;
#X connect 112 0 85 0;
#X connect 113 0 112 1;
#X connect 114 0 124 0;
#X connect 115 0 116 1;
#X connect 115 0 117 1;
#X connect 116 0 108 0;
#X connect 117 0 109 0;
#X connect 118 0 128 0;
#X connect 119 0 129 0;
#X connect 120 0 125 0;
#X connect 121 0 122 0;
#X connect 122 0 120 0;
#X connect 123 0 106 0;
#X connect 124 0 113 0;
#X connect 125 0 90 1;
#X connect 126 0 127 0;
#X connect 127 0 112 2;
#X connect 128 0 116 0;
#X connect 129 0 117 0;
#X connect 130 0 131 0;
#X connect 130 1 132 0;
#X connect 131 0 92 1;
#X connect 132 0 92 1;
