#N canvas 563 53 1601 1104 10;
#X obj 551 31 r TKINSIZE1;
#X obj 463 32 r TKINSIZE0;
#X obj 643 32 r TKINNUM0;
#X obj 166 562 vline~;
#X obj 232 583 noise~;
#X obj 166 620 *~;
#X obj 166 486 bang;
#X obj 210 511 del 5;
#X msg 166 529 1 1;
#X msg 210 532 0 1;
#X obj 308 845 lop~ 4000;
#X obj 306 911 *~ 0.99;
#X obj 308 688 mtof;
#X obj 308 713 t b f;
#X obj 308 761 /;
#X msg 308 738 1;
#X obj 308 785 * 1000;
#X obj 317 1043 dac~;
#X obj 251 422 bng 15 250 50 0 empty empty empty 17 7 0 10 -262144
-1 -1;
#X floatatom 442 937 10 0 0 0 - - -, f 10;
#X floatatom 399 804 10 0 0 0 - - -, f 10;
#X text 443 859 decay;
#X text 431 715 cutoff;
#X msg 308 664 48;
#X obj 971 876 sig~;
#X floatatom 971 854 5 0 0 0 - - -, f 5;
#X obj 971 925 *~;
#X obj 1141 799 vsl 15 128 0 1 0 0 empty empty empty 0 -9 0 10 -262144
-1 -1 0 1;
#X msg 1047 901 \$1 20;
#X obj 1047 925 line~;
#X obj 1016 1083 s~ feedback;
#X obj 1132 1071 r~ feedback;
#X obj 1195 884 vsl 15 128 0 1 0 0 empty empty empty 0 -9 0 10 -262144
-1 -1 0 1;
#X msg 1101 986 \$1 20;
#X obj 1101 1010 line~;
#X obj 1057 1026 *~;
#X obj 1154 1132 delwrite~ demitri 4000;
#X obj 971 899 vd~ demitri;
#X obj 238 638 env~;
#X obj 239 659 - 100;
#X obj 240 685 vu 15 120 empty empty -1 -8 0 10 -66577 -1 1 0;
#X obj 170 1087 env~;
#X obj 171 1108 - 100;
#X obj 172 1134 vu 15 120 empty empty -1 -8 0 10 -66577 -1 1 0;
#X obj 652 1120 env~;
#X obj 653 1141 - 100;
#X obj 654 1167 vu 15 120 empty empty -1 -8 0 10 -66577 -1 1 0;
#X obj 488 711 vsl 15 128 20 20000 0 0 empty empty empty 0 -9 0 10
-262144 -1 -1 0 1;
#X msg 399 756 \$1 20;
#X obj 399 780 line;
#X obj 528 838 vsl 15 128 0.8 1 0 0 empty empty empty 0 -9 0 10 -262144
-1 -1 0 1;
#X msg 442 890 \$1 20;
#X obj 442 914 line;
#X obj 623 383 vline~;
#X obj 689 404 noise~;
#X obj 623 441 *~;
#X obj 623 307 bang;
#X obj 667 332 del 5;
#X msg 623 350 1 1;
#X msg 667 353 0 1;
#X obj 765 666 lop~ 4000;
#X obj 763 732 *~ 0.99;
#X obj 765 509 mtof;
#X obj 765 534 t b f;
#X obj 765 582 /;
#X msg 765 559 1;
#X obj 765 606 * 1000;
#X obj 708 243 bng 15 250 50 0 empty empty empty 17 7 0 10 -262144
-1 -1;
#X floatatom 899 758 10 0 0 0 - - -, f 10;
#X floatatom 856 625 10 0 0 0 - - -, f 10;
#X text 900 680 decay;
#X text 888 536 cutoff;
#X obj 695 459 env~;
#X obj 696 480 - 100;
#X obj 697 506 vu 15 120 empty empty -1 -8 0 10 -66577 -1 1 0;
#X obj 945 532 vsl 15 128 20 20000 0 0 empty empty empty 0 -9 0 10
-262144 -1 -1 0 1;
#X msg 856 577 \$1 20;
#X obj 856 601 line;
#X obj 985 659 vsl 15 128 0.8 1 0 0 empty empty empty 0 -9 0 10 -262144
-1 -1 0 1;
#X msg 899 711 \$1 20;
#X obj 899 735 line;
#X obj 170 996 delwrite~ deli1 1000;
#X obj 308 811 vd~ deli1 12;
#X obj 627 817 delwrite~ deli2 1000;
#X obj 765 632 vd~ deli2 12;
#X obj 574 164 > 0;
#X obj 575 188 sel 1;
#X obj 696 165 > 0;
#X obj 697 189 sel 1;
#X obj 731 30 r TKINNUM1;
#X msg 765 485 50;
#X obj 575 136 change 1;
#X obj 682 119 change 1;
#X obj 141 33 r TKINPOSX0;
#X obj 218 33 r TKINPOSX1;
#X obj 304 31 r TKINPOSY0;
#X obj 381 31 r TKINPOSY1;
#X obj 49 109 print TKINPOSX0;
#X obj 148 109 print TKINPOSX1;
#X obj 256 109 print TKINPOSY0;
#X obj 355 109 print TKINPOSY1;
#X obj 477 98 print TKINSIZE0;
#X obj 576 98 print TKINSIZE1;
#X obj 692 92 print TKINNUM0;
#X obj 791 92 print TKINNUM1;
#X connect 0 0 102 0;
#X connect 1 0 101 0;
#X connect 2 0 91 0;
#X connect 2 0 103 0;
#X connect 3 0 5 0;
#X connect 4 0 5 1;
#X connect 5 0 38 0;
#X connect 5 0 81 0;
#X connect 6 0 8 0;
#X connect 6 0 7 0;
#X connect 7 0 9 0;
#X connect 8 0 3 0;
#X connect 9 0 3 0;
#X connect 10 0 11 0;
#X connect 11 0 17 0;
#X connect 11 0 17 1;
#X connect 11 0 36 0;
#X connect 11 0 41 0;
#X connect 11 0 44 0;
#X connect 11 0 81 0;
#X connect 12 0 13 0;
#X connect 13 0 15 0;
#X connect 13 1 14 1;
#X connect 14 0 16 0;
#X connect 15 0 14 0;
#X connect 16 0 82 0;
#X connect 18 0 6 0;
#X connect 18 0 23 0;
#X connect 19 0 11 1;
#X connect 20 0 10 1;
#X connect 23 0 12 0;
#X connect 24 0 37 0;
#X connect 25 0 24 0;
#X connect 26 0 17 0;
#X connect 26 0 17 1;
#X connect 26 0 44 0;
#X connect 27 0 28 0;
#X connect 28 0 29 0;
#X connect 29 0 26 1;
#X connect 31 0 36 0;
#X connect 32 0 33 0;
#X connect 33 0 34 0;
#X connect 34 0 35 1;
#X connect 35 0 30 0;
#X connect 37 0 26 0;
#X connect 37 0 35 0;
#X connect 38 0 39 0;
#X connect 39 0 40 0;
#X connect 41 0 42 0;
#X connect 42 0 43 0;
#X connect 44 0 45 0;
#X connect 45 0 46 0;
#X connect 47 0 48 0;
#X connect 48 0 49 0;
#X connect 49 0 20 0;
#X connect 50 0 51 0;
#X connect 51 0 52 0;
#X connect 52 0 19 0;
#X connect 53 0 55 0;
#X connect 54 0 55 1;
#X connect 55 0 72 0;
#X connect 55 0 83 0;
#X connect 56 0 58 0;
#X connect 56 0 57 0;
#X connect 57 0 59 0;
#X connect 58 0 53 0;
#X connect 59 0 53 0;
#X connect 60 0 61 0;
#X connect 61 0 17 0;
#X connect 61 0 17 1;
#X connect 61 0 83 0;
#X connect 61 0 36 0;
#X connect 61 0 41 0;
#X connect 61 0 44 0;
#X connect 62 0 63 0;
#X connect 63 0 65 0;
#X connect 63 1 64 1;
#X connect 64 0 66 0;
#X connect 65 0 64 0;
#X connect 66 0 84 0;
#X connect 67 0 56 0;
#X connect 67 0 90 0;
#X connect 68 0 61 1;
#X connect 69 0 60 1;
#X connect 72 0 73 0;
#X connect 73 0 74 0;
#X connect 75 0 76 0;
#X connect 76 0 77 0;
#X connect 77 0 69 0;
#X connect 78 0 79 0;
#X connect 79 0 80 0;
#X connect 80 0 68 0;
#X connect 82 0 10 0;
#X connect 84 0 60 0;
#X connect 85 0 86 0;
#X connect 86 0 18 0;
#X connect 87 0 88 0;
#X connect 88 0 67 0;
#X connect 89 0 92 0;
#X connect 89 0 104 0;
#X connect 90 0 62 0;
#X connect 91 0 85 0;
#X connect 92 0 87 0;
#X connect 93 0 97 0;
#X connect 94 0 98 0;
#X connect 95 0 99 0;
#X connect 96 0 100 0;
