#N canvas 372 100 898 659 10;
#X obj 259 337 timer;
#X obj 259 254 moses 1;
#X obj 258 292 bng 15 250 50 0 empty empty empty 17 7 0 10 -262144
-1 -1;
#X obj 292 291 bng 15 250 50 0 empty empty empty 17 7 0 10 -262144
-1 -1;
#X obj 294 106 r S;
#X obj 279 461 print time;
#X obj 302 159 print input;
#X connect 0 0 5 0;
#X connect 1 0 2 0;
#X connect 1 1 3 0;
#X connect 2 0 0 0;
#X connect 3 0 0 1;
#X connect 4 0 1 0;
#X connect 4 0 6 0;
