#N canvas 362 26 1726 1061 10;
#X obj 1055 425 r N1;
#X obj 1055 451 r L1;
#X obj 1055 477 r Y1;
#X obj 1116 533 r X1.1;
#X obj 1116 561 r X1.2;
#X obj 1116 590 r X1.3;
#X obj 1170 532 r S1.1;
#X obj 1170 560 r S1.2;
#X obj 1170 589 r S1.3;
#X text 1087 425 Number of fingers pressed;
#X text 1088 451 Last finger pressed;
#X text 1090 478 Overall Y position;
#X text 1168 511 Touch size;
#X text 1056 535 Finger 1;
#X text 1056 562 Finger 2;
#X text 1057 591 Finger 3;
#X text 1052 401 SENSOR 1;
#X text 1052 496 -------------------------------;
#X text 1114 511 X pos;
#X text 1093 785 Number of fingers pressed;
#X text 1094 811 Last finger pressed;
#X text 1096 838 Overall Y position;
#X text 1174 871 Touch size;
#X text 1062 895 Finger 1;
#X text 1062 922 Finger 2;
#X text 1063 951 Finger 3;
#X text 1058 856 -------------------------------;
#X text 1120 871 X pos;
#X text 1058 761 SENSOR 2;
#X obj 1061 785 r N2;
#X obj 1061 811 r L2;
#X obj 1061 837 r Y2;
#X obj 1122 893 r X2.1;
#X obj 1122 921 r X2.2;
#X obj 1122 950 r X2.3;
#X obj 1176 892 r S2.1;
#X obj 1176 920 r S2.2;
#X obj 1176 949 r S2.3;
#X text 1408 421 Number of fingers pressed;
#X text 1409 447 Last finger pressed;
#X text 1411 474 Overall Y position;
#X text 1489 507 Touch size;
#X text 1377 531 Finger 1;
#X text 1377 558 Finger 2;
#X text 1378 587 Finger 3;
#X text 1373 492 -------------------------------;
#X text 1435 507 X pos;
#X text 1414 781 Number of fingers pressed;
#X text 1415 807 Last finger pressed;
#X text 1417 834 Overall Y position;
#X text 1495 867 Touch size;
#X text 1383 891 Finger 1;
#X text 1383 918 Finger 2;
#X text 1384 947 Finger 3;
#X text 1379 852 -------------------------------;
#X text 1441 867 X pos;
#X text 1373 397 SENSOR 3;
#X text 1379 757 SENSOR 4;
#X obj 1376 421 r N3;
#X obj 1376 447 r L3;
#X obj 1376 473 r Y3;
#X obj 1437 529 r X3.1;
#X obj 1437 557 r X3.2;
#X obj 1437 586 r X3.3;
#X obj 1491 528 r S3.1;
#X obj 1491 556 r S3.2;
#X obj 1491 585 r S3.3;
#X obj 1382 781 r N4;
#X obj 1382 807 r L4;
#X obj 1382 833 r Y4;
#X obj 1443 889 r X4.1;
#X obj 1443 917 r X4.2;
#X obj 1442 946 r X4.3;
#X obj 1497 888 r S4.1;
#X obj 1497 916 r S4.2;
#X obj 1497 945 r S4.3;
#X obj 990 164 sig~;
#X floatatom 990 142 5 0 0 0 - - -, f 5;
#X obj 990 213 *~;
#X obj 1113 106 vsl 15 128 0 1 0 0 empty empty empty 0 -9 0 10 -262144
-1 -1 0 1;
#X msg 1066 189 \$1 20;
#X obj 1066 213 line~;
#X obj 1044 314 s~ feedback;
#X obj 956 76 r~ feedback;
#X obj 1139 172 vsl 15 128 0 1 0 0 empty empty empty 0 -9 0 10 -262144
-1 -1 0 1;
#X msg 1088 250 \$1 20;
#X obj 1088 274 line~;
#X obj 1044 290 *~;
#X obj 956 103 delwrite~ demitri 4000;
#X obj 990 187 vd~ demitri;
#X obj 263 229 vline~;
#X obj 263 260 *~;
#X obj 263 173 bang;
#X obj 307 190 del 5;
#X msg 263 201 1 1;
#X msg 307 211 0 1;
#X obj 327 451 lop~ 4000;
#X obj 327 473 *~ 0.99;
#X obj 327 306 mtof;
#X obj 327 331 t b f;
#X obj 327 379 /;
#X msg 327 356 1;
#X obj 327 403 * 1000;
#X obj 262 148 bng 15 250 50 0 empty empty empty 17 7 0 10 -262144
-1 -1;
#X floatatom 416 499 10 0 0 0 - - -, f 10;
#X floatatom 418 422 10 0 0 0 - - -, f 10;
#X text 455 474 decay;
#X text 448 404 cutoff;
#X obj 272 286 env~;
#X obj 273 307 - 100;
#X obj 274 333 vu 15 80 empty empty -1 -8 0 10 -66577 -1 1 0;
#X obj 388 370 vsl 15 50 20 20000 0 0 empty empty empty 0 -9 0 10 -262144
-1 -1 0 1;
#X msg 418 374 \$1 20;
#X obj 418 398 line;
#X obj 391 458 vsl 15 50 0.8 1 0 0 empty empty empty 0 -9 0 10 -262144
-1 -1 0 1;
#X msg 416 452 \$1 20;
#X obj 416 476 line;
#X obj 263 544 delwrite~ deli2 1000;
#X obj 327 429 vd~ deli2 12;
#X obj 262 103 > 0;
#X obj 262 124 sel 1;
#X obj 161 751 dac~, f 6;
#X obj 990 237 s~ output;
#X obj 738 230 vline~;
#X obj 738 261 *~;
#X obj 738 174 bang;
#X obj 782 191 del 5;
#X msg 738 202 1 1;
#X msg 782 212 0 1;
#X obj 802 452 lop~ 4000;
#X obj 802 474 *~ 0.99;
#X obj 802 307 mtof;
#X obj 802 332 t b f;
#X obj 802 380 /;
#X msg 802 357 1;
#X obj 802 404 * 1000;
#X obj 737 149 bng 15 250 50 0 empty empty empty 17 7 0 10 -262144
-1 -1;
#X floatatom 891 500 10 0 0 0 - - -, f 10;
#X floatatom 893 423 10 0 0 0 - - -, f 10;
#X text 930 475 decay;
#X text 923 405 cutoff;
#X obj 747 287 env~;
#X obj 748 308 - 100;
#X obj 749 334 vu 15 80 empty empty -1 -8 0 10 -66577 -1 1 0;
#X obj 863 371 vsl 15 50 20 20000 0 0 empty empty empty 0 -9 0 10 -262144
-1 -1 0 1;
#X msg 893 375 \$1 20;
#X obj 893 399 line;
#X obj 866 459 vsl 15 50 0.8 1 0 0 empty empty empty 0 -9 0 10 -262144
-1 -1 0 1;
#X msg 891 453 \$1 20;
#X obj 891 477 line;
#X obj 737 104 > 0;
#X obj 737 125 sel 1;
#X obj 502 230 vline~;
#X obj 502 261 *~;
#X obj 502 174 bang;
#X obj 546 191 del 5;
#X msg 502 202 1 1;
#X msg 546 212 0 1;
#X obj 566 452 lop~ 4000;
#X obj 566 474 *~ 0.99;
#X obj 566 307 mtof;
#X obj 566 332 t b f;
#X obj 566 380 /;
#X msg 566 357 1;
#X obj 566 404 * 1000;
#X obj 501 149 bng 15 250 50 0 empty empty empty 17 7 0 10 -262144
-1 -1;
#X floatatom 655 500 10 0 0 0 - - -, f 10;
#X floatatom 657 423 10 0 0 0 - - -, f 10;
#X text 694 475 decay;
#X text 687 405 cutoff;
#X obj 511 287 env~;
#X obj 512 308 - 100;
#X obj 513 334 vu 15 80 empty empty -1 -8 0 10 -66577 -1 1 0;
#X obj 627 371 vsl 15 50 20 20000 0 0 empty empty empty 0 -9 0 10 -262144
-1 -1 0 1;
#X msg 657 375 \$1 20;
#X obj 657 399 line;
#X obj 630 459 vsl 15 50 0.8 1 0 0 empty empty empty 0 -9 0 10 -262144
-1 -1 0 1;
#X msg 655 453 \$1 20;
#X obj 655 477 line;
#X obj 501 104 > 0;
#X obj 501 125 sel 1;
#X obj 502 545 delwrite~ deli3 1000;
#X obj 738 545 delwrite~ deli4 1000;
#X obj 566 430 vd~ deli3 12;
#X obj 802 430 vd~ deli4 12;
#X obj 262 58 r N2;
#X obj 501 59 r N3;
#X obj 737 59 r N4;
#X obj 262 81 change 0;
#X obj 501 82 change 0;
#X obj 737 82 change 0;
#X obj 327 522 s~ output2;
#X obj 394 521 s~ toDelay2;
#X obj 566 522 s~ output3;
#X obj 633 522 s~ toDelay3;
#X obj 802 522 s~ output4;
#X obj 873 522 s~ toDelay4;
#X obj 183 707 r~ output3;
#X obj 251 707 r~ output4;
#X obj 1057 16 r~ toDelay1;
#X obj 1057 36 r~ toDelay2;
#X obj 1058 57 r~ toDelay3;
#X obj 1058 77 r~ toDelay4;
#X msg 327 282 62;
#X msg 566 283 64;
#X msg 802 283 66;
#X obj 94 450 lop~ 4000;
#X obj 94 472 *~ 0.99;
#X obj 94 305 mtof;
#X obj 94 330 t b f;
#X obj 94 378 /;
#X msg 94 355 1;
#X obj 94 402 * 1000;
#X floatatom 183 498 10 0 0 0 - - -, f 10;
#X floatatom 185 421 10 0 0 0 - - -, f 10;
#X text 222 473 decay;
#X text 215 403 cutoff;
#X obj 155 369 vsl 15 50 20 20000 0 0 empty empty empty 0 -9 0 10 -262144
-1 -1 0 1;
#X msg 185 373 \$1 20;
#X obj 185 397 line;
#X obj 158 457 vsl 15 50 0.8 1 0 0 empty empty empty 0 -9 0 10 -262144
-1 -1 0 1;
#X msg 183 451 \$1 20;
#X obj 183 475 line;
#X obj 30 543 delwrite~ deli1 1000;
#X obj 94 428 vd~ deli1 12;
#X msg 94 281 60;
#X obj 161 520 s~ toDelay1;
#X obj 30 230 vline~;
#X obj 30 261 *~;
#X obj 30 174 bang;
#X obj 74 191 del 5;
#X msg 30 202 1 1;
#X msg 74 212 0 1;
#X obj 29 149 bng 15 250 50 0 empty empty empty 17 7 0 10 -262144 -1
-1;
#X obj 39 287 env~;
#X obj 40 308 - 100;
#X obj 41 334 vu 15 80 empty empty -1 -8 0 10 -66577 -1 1 0;
#X obj 29 104 > 0;
#X obj 29 125 sel 1;
#X obj 29 82 change 0;
#X obj 29 59 r N1;
#X obj 116 707 r~ output2;
#X obj 48 707 r~ output1;
#X obj 94 521 s~ output1;
#X obj 145 21 adc~;
#X obj 145 44 s~ in;
#X obj 58 261 r~ in;
#X obj 291 260 r~ in;
#X obj 766 261 r~ in;
#X obj 530 262 r~ in;
#X connect 76 0 89 0;
#X connect 77 0 76 0;
#X connect 78 0 122 0;
#X connect 79 0 80 0;
#X connect 80 0 81 0;
#X connect 81 0 78 1;
#X connect 83 0 88 0;
#X connect 84 0 85 0;
#X connect 85 0 86 0;
#X connect 86 0 87 1;
#X connect 87 0 82 0;
#X connect 89 0 78 0;
#X connect 89 0 87 0;
#X connect 90 0 91 0;
#X connect 91 0 108 0;
#X connect 91 0 117 0;
#X connect 92 0 94 0;
#X connect 92 0 93 0;
#X connect 93 0 95 0;
#X connect 94 0 90 0;
#X connect 95 0 90 0;
#X connect 96 0 97 0;
#X connect 97 0 117 0;
#X connect 97 0 191 0;
#X connect 97 0 192 0;
#X connect 98 0 99 0;
#X connect 99 0 101 0;
#X connect 99 1 100 1;
#X connect 100 0 102 0;
#X connect 101 0 100 0;
#X connect 102 0 118 0;
#X connect 103 0 92 0;
#X connect 103 0 203 0;
#X connect 104 0 97 1;
#X connect 105 0 96 1;
#X connect 108 0 109 0;
#X connect 109 0 110 0;
#X connect 111 0 112 0;
#X connect 112 0 113 0;
#X connect 113 0 105 0;
#X connect 114 0 115 0;
#X connect 115 0 116 0;
#X connect 116 0 104 0;
#X connect 118 0 96 0;
#X connect 119 0 120 0;
#X connect 120 0 103 0;
#X connect 123 0 124 0;
#X connect 124 0 141 0;
#X connect 124 0 182 0;
#X connect 125 0 127 0;
#X connect 125 0 126 0;
#X connect 126 0 128 0;
#X connect 127 0 123 0;
#X connect 128 0 123 0;
#X connect 129 0 130 0;
#X connect 130 0 182 0;
#X connect 130 0 195 0;
#X connect 130 0 196 0;
#X connect 131 0 132 0;
#X connect 132 0 134 0;
#X connect 132 1 133 1;
#X connect 133 0 135 0;
#X connect 134 0 133 0;
#X connect 135 0 184 0;
#X connect 136 0 125 0;
#X connect 136 0 205 0;
#X connect 137 0 130 1;
#X connect 138 0 129 1;
#X connect 141 0 142 0;
#X connect 142 0 143 0;
#X connect 144 0 145 0;
#X connect 145 0 146 0;
#X connect 146 0 138 0;
#X connect 147 0 148 0;
#X connect 148 0 149 0;
#X connect 149 0 137 0;
#X connect 150 0 151 0;
#X connect 151 0 136 0;
#X connect 152 0 153 0;
#X connect 153 0 170 0;
#X connect 153 0 181 0;
#X connect 154 0 156 0;
#X connect 154 0 155 0;
#X connect 155 0 157 0;
#X connect 156 0 152 0;
#X connect 157 0 152 0;
#X connect 158 0 159 0;
#X connect 159 0 181 0;
#X connect 159 0 193 0;
#X connect 159 0 194 0;
#X connect 160 0 161 0;
#X connect 161 0 163 0;
#X connect 161 1 162 1;
#X connect 162 0 164 0;
#X connect 163 0 162 0;
#X connect 164 0 183 0;
#X connect 165 0 154 0;
#X connect 165 0 204 0;
#X connect 166 0 159 1;
#X connect 167 0 158 1;
#X connect 170 0 171 0;
#X connect 171 0 172 0;
#X connect 173 0 174 0;
#X connect 174 0 175 0;
#X connect 175 0 167 0;
#X connect 176 0 177 0;
#X connect 177 0 178 0;
#X connect 178 0 166 0;
#X connect 179 0 180 0;
#X connect 180 0 165 0;
#X connect 183 0 158 0;
#X connect 184 0 129 0;
#X connect 185 0 188 0;
#X connect 186 0 189 0;
#X connect 187 0 190 0;
#X connect 188 0 119 0;
#X connect 189 0 179 0;
#X connect 190 0 150 0;
#X connect 197 0 121 0;
#X connect 197 0 121 1;
#X connect 198 0 121 0;
#X connect 198 0 121 1;
#X connect 199 0 88 0;
#X connect 200 0 88 0;
#X connect 201 0 88 0;
#X connect 202 0 88 0;
#X connect 203 0 98 0;
#X connect 204 0 160 0;
#X connect 205 0 131 0;
#X connect 206 0 207 0;
#X connect 207 0 223 0;
#X connect 207 0 226 0;
#X connect 207 0 243 0;
#X connect 208 0 209 0;
#X connect 209 0 211 0;
#X connect 209 1 210 1;
#X connect 210 0 212 0;
#X connect 211 0 210 0;
#X connect 212 0 224 0;
#X connect 213 0 207 1;
#X connect 214 0 206 1;
#X connect 217 0 218 0;
#X connect 218 0 219 0;
#X connect 219 0 214 0;
#X connect 220 0 221 0;
#X connect 221 0 222 0;
#X connect 222 0 213 0;
#X connect 224 0 206 0;
#X connect 225 0 208 0;
#X connect 227 0 228 0;
#X connect 228 0 234 0;
#X connect 228 0 223 0;
#X connect 229 0 231 0;
#X connect 229 0 230 0;
#X connect 230 0 232 0;
#X connect 231 0 227 0;
#X connect 232 0 227 0;
#X connect 233 0 229 0;
#X connect 233 0 225 0;
#X connect 234 0 235 0;
#X connect 235 0 236 0;
#X connect 237 0 238 0;
#X connect 238 0 233 0;
#X connect 239 0 237 0;
#X connect 240 0 239 0;
#X connect 241 0 121 0;
#X connect 242 0 121 0;
#X connect 242 0 121 1;
#X connect 244 0 245 0;
#X connect 246 0 228 1;
#X connect 247 0 91 1;
#X connect 248 0 124 1;
#X connect 249 0 153 1;
