#N canvas 327 76 1726 1061 10;
#X obj 687 61 r N1;
#X obj 687 87 r L1;
#X obj 687 113 r Y1;
#X obj 748 169 r X1.1;
#X obj 748 197 r X1.2;
#X obj 748 226 r X1.3;
#X obj 802 196 r S1.2;
#X obj 802 225 r S1.3;
#X text 719 61 Number of fingers pressed;
#X text 720 87 Last finger pressed;
#X text 722 114 Overall Y position;
#X text 800 147 Touch size;
#X text 688 171 Finger 1;
#X text 688 198 Finger 2;
#X text 689 227 Finger 3;
#X text 684 37 SENSOR 1;
#X text 690 255 -------------------------------;
#X text 746 147 X pos;
#X obj 67 687 dac~, f 6;
#X obj 17 39 adc~;
#X text 684 132 -------------------------------;
#X obj 101 322 mtof;
#X obj 101 344 t b f;
#X obj 101 388 /;
#X msg 101 366 1;
#X obj 101 410 * 1000;
#X obj 101 502 s~ output1;
#X obj 35 552 delwrite~ deli1 1000;
#X obj 101 433 vd~ deli1 12;
#X obj 801 169 r S1.1;
#X obj 101 457 lop~ 6000;
#X obj 101 480 *~ 0.95;
#X obj 135 595 r~ output2;
#X obj 68 595 r~ output1;
#X obj 35 502 *~ 1;
#X obj 139 640 rev3~ 100 70 4000 0;
#X msg 101 299 36;
#X obj 522 91 print N1;
#X obj 520 145 print L1;
#X obj 511 191 print Y1;
#X obj 507 235 print X1.1;
#X obj 507 263 print X1.2;
#X obj 507 292 print X1.3;
#X obj 594 235 print S1.1;
#X obj 595 262 print S1.2;
#X obj 595 291 print S1.3;
#X obj 101 261 loadbang;
#X obj 390 696 dac~ 27 28;
#X obj 400 533 *~;
#X obj 505 575 line~;
#X obj 416 441 osc~ 5000;
#X obj 554 427 sel 0;
#X msg 586 480 1;
#X msg 586 520 0;
#X connect 0 0 51 0;
#X connect 19 1 34 0;
#X connect 19 1 47 0;
#X connect 21 0 22 0;
#X connect 22 0 24 0;
#X connect 22 1 23 1;
#X connect 23 0 25 0;
#X connect 24 0 23 0;
#X connect 25 0 28 0;
#X connect 28 0 30 0;
#X connect 30 0 31 0;
#X connect 31 0 26 0;
#X connect 31 0 27 0;
#X connect 32 0 18 0;
#X connect 32 0 18 1;
#X connect 32 0 35 0;
#X connect 33 0 18 0;
#X connect 33 0 18 1;
#X connect 33 0 35 0;
#X connect 34 0 27 0;
#X connect 35 0 18 0;
#X connect 35 0 18 1;
#X connect 36 0 21 0;
#X connect 46 0 36 0;
#X connect 48 0 47 1;
#X connect 49 0 48 1;
#X connect 50 0 48 0;
#X connect 51 0 53 0;
#X connect 51 1 52 0;
#X connect 52 0 49 0;
#X connect 53 0 49 0;
