#N canvas 390 57 1949 1184 10;
#X obj 30 120 vline~;
#X obj 228 74 noise~;
#X obj 30 178 *~;
#X obj 30 44 bang;
#X obj 74 69 del 5;
#X msg 30 87 1 1;
#X msg 74 90 0 1;
#X obj 216 455 lop~ 4000;
#X obj 216 532 *~ 0.99;
#X obj 216 307 mtof;
#X obj 216 329 t b f;
#X obj 216 378 /;
#X msg 216 352 1;
#X obj 216 402 * 1000;
#X obj 215 647 dac~;
#X floatatom 1275 504 5 0 0 0 - - -;
#X obj 30 15 bng 15 250 50 0 empty empty empty 17 7 0 10 -262144 -1
-1;
#X floatatom 282 516 10 0 0 0 - - -;
#X floatatom 313 440 10 0 0 0 - - -;
#X text 372 481 decay;
#X text 386 404 cutoff;
#X floatatom 139 36 5 0 0 0 - - -;
#X text 183 37 delay;
#X msg 1578 304 60;
#X msg 1687 304 64;
#X msg 1721 304 65;
#X msg 1604 283 61;
#X msg 1632 304 62;
#X msg 1659 283 63;
#X msg 1751 283 66;
#X msg 1779 304 67;
#X msg 1808 283 68;
#X msg 1837 304 69;
#X msg 1864 283 70;
#X msg 1890 304 71;
#X msg 1924 305 72;
#X msg 1544 304 59;
#X msg 1518 283 58;
#X msg 1491 304 57;
#X msg 1462 283 56;
#X msg 1433 303 55;
#X msg 1405 283 54;
#X msg 1375 304 53;
#X msg 1341 304 52;
#X msg 1314 282 51;
#X msg 1286 304 50;
#X msg 1258 283 49;
#X msg 1232 304 48;
#X obj 227 151 resofilt~ 3;
#X floatatom 258 122 5 0 0 0 - - -;
#X floatatom 290 123 5 0 0 0 - - -;
#X obj 40 547 delwrite~ deli 1000;
#X obj 216 425 vd~ deli 12;
#X obj 706 487 sig~;
#X floatatom 706 465 5 0 0 0 - - -;
#X obj 706 536 *~;
#X obj 876 410 vsl 15 128 0 1 0 0 empty empty empty 0 -9 0 10 -262144
-1 -1 0 1;
#X msg 782 512 \$1 20;
#X obj 782 536 line~;
#X obj 792 663 s~ feedback;
#X obj 25 590 r~ feedback;
#X obj 930 495 vsl 15 128 0 1 0 0 empty empty empty 0 -9 0 10 -262144
-1 -1 0 1;
#X msg 836 597 \$1 20;
#X obj 836 621 line~;
#X obj 792 637 *~;
#X obj 25 616 delwrite~ demitri 4000;
#X obj 706 510 vd~ demitri;
#X obj 102 196 env~;
#X obj 103 217 - 100;
#X obj 104 243 vu 15 120 empty empty -1 -8 0 10 -66577 -1 1 0;
#X obj 364 381 vsl 15 50 20 20000 0 0 empty empty empty 0 -9 0 10 -262144
-1 -1 1429 1;
#X msg 313 394 \$1 20;
#X obj 313 417 line;
#X obj 352 469 vsl 15 50 0.8 1 0 0 empty empty empty 0 -9 0 10 -262144
-1 -1 3941 1;
#X msg 282 468 \$1 20;
#X obj 282 492 line;
#X obj 307 -127 vsl 15 128 0 100 0 0 empty empty empty 0 -9 0 10 -262144
-1 -1 2139 1;
#X msg 213 -24 \$1 20;
#X obj 213 0 line;
#X obj 304 151 resofilt~ 3;
#X floatatom 335 122 5 0 0 0 - - -;
#X floatatom 367 122 5 0 0 0 - - -;
#X obj 335 98 * 2;
#X obj 383 151 resofilt~ 3;
#X floatatom 414 125 5 0 0 0 - - -;
#X floatatom 446 125 5 0 0 0 - - -;
#X obj 414 99 * 3;
#X floatatom 887 -94 5 0 0 0 - - -;
#X floatatom 887 -67 5 0 0 0 - - -;
#X floatatom 883 -33 5 0 0 0 - - -;
#X floatatom 951 -93 5 0 0 0 - - -;
#N canvas 761 412 1157 471 OSCOSCOSCOSCOSCOSCOSC 0;
#X obj 9 11 dumpOSC 8000;
#X obj -14 99 outlet;
#X obj 45 172 outlet;
#X obj 96 240 outlet;
#X obj 107 84 outlet;
#X obj 173 141 outlet;
#X obj 210 233 outlet;
#X obj 426 109 print else;
#X obj 223 84 outlet;
#X obj 289 141 outlet;
#X obj 326 233 outlet;
#X obj 2 124 print S1Pos;
#X obj 112 265 print S1Touch;
#X obj 123 109 print S2Pos;
#X obj 239 109 print S3Pos;
#X obj 61 197 print S1Size;
#X obj 189 166 print S2Size;
#X obj 304 166 print S3Size;
#X obj 226 258 print S2Touch;
#X obj 342 258 print S3Touch;
#X obj 9 35 OSCroute /pos1 /size1 /touch1 /pos2 /size2 /touch2 /pos3
/size3 /touch3;
#X connect 0 0 20 0;
#X connect 20 0 1 0;
#X connect 20 0 11 0;
#X connect 20 1 2 0;
#X connect 20 1 15 0;
#X connect 20 2 3 0;
#X connect 20 2 12 0;
#X connect 20 3 4 0;
#X connect 20 3 13 0;
#X connect 20 4 5 0;
#X connect 20 4 16 0;
#X connect 20 5 6 0;
#X connect 20 5 18 0;
#X connect 20 6 8 0;
#X connect 20 6 14 0;
#X connect 20 7 9 0;
#X connect 20 7 17 0;
#X connect 20 8 10 0;
#X connect 20 8 19 0;
#X connect 20 9 7 0;
#X restore 887 -127 pd OSCOSCOSCOSCOSCOSCOSC;
#X floatatom 942 -36 5 0 0 0 - - -;
#X floatatom 940 -66 5 0 0 0 - - -;
#X floatatom 1005 -94 5 0 0 0 - - -;
#X floatatom 996 -37 5 0 0 0 - - -;
#X floatatom 994 -67 5 0 0 0 - - -;
#X obj 1103 43 onebang;
#X obj 1154 78 onebang;
#X obj 1205 104 onebang;
#X obj 1257 142 onebang;
#X obj 1313 167 onebang;
#X obj 1364 180 onebang;
#X obj 883 -9 sel 0;
#X obj 1105 20 bng 15 250 50 0 empty empty empty 17 7 0 10 -262144
-1 -1;
#X obj 1161 54 bng 15 250 50 0 empty empty empty 17 7 0 10 -262144
-1 -1;
#X obj 1207 68 bng 15 250 50 0 empty empty empty 17 7 0 10 -262144
-1 -1;
#X obj 1281 108 bng 15 250 50 0 empty empty empty 17 7 0 10 -262144
-1 -1;
#X obj 1307 127 bng 15 250 50 0 empty empty empty 17 7 0 10 -262144
-1 -1;
#X obj 1361 154 bng 15 250 50 0 empty empty empty 17 7 0 10 -262144
-1 -1;
#X obj 216 615 *~;
#X floatatom 271 597 10 0 0 0 - - -;
#X msg 271 549 \$1 20;
#X obj 271 573 line;
#X obj 342 552 vsl 15 50 0.5 1 0 0 empty empty empty 0 -9 0 10 -262144
-1 -1 0 1;
#X obj 629 53 maxlib/scale 0 120 0.2 1;
#X text 362 563 Amp;
#X obj 521 -44 maxlib/scale 0 120 0 20;
#X floatatom 1306 641 5 0 0 0 - - -;
#X obj 1306 619 line;
#X floatatom 1308 567 5 0 0 0 - - -;
#X msg 1306 596 \$1 50;
#X obj 1287 704 s trig;
#X obj 130 -68 spigot;
#X obj 134 -100 r trig;
#X obj 14 -20 onebang;
#X floatatom 143 -44 5 0 0 0 - - -;
#X obj 77 -51 bng 15 250 50 0 empty empty empty 17 7 0 10 -262144 -1
-1;
#X obj 777 77 maxlib/scale 0 120 0.8 2;
#X obj 1103 -4 moses 87.5;
#X obj 1154 19 moses 175;
#X obj 1205 42 moses 262.5;
#X obj 1256 67 moses 350;
#X obj 1307 92 moses 437.5;
#X obj 1358 116 moses 525;
#X obj 1446 211 onebang;
#X obj 1497 224 onebang;
#X obj 1440 171 bng 15 250 50 0 empty empty empty 17 7 0 10 -262144
-1 -1;
#X obj 1505 180 bng 15 250 50 0 empty empty empty 17 7 0 10 -262144
-1 -1;
#X obj 1440 136 moses 612.5;
#X connect 0 0 2 0;
#X connect 1 0 48 0;
#X connect 1 0 2 1;
#X connect 1 0 79 0;
#X connect 1 0 83 0;
#X connect 2 0 51 0;
#X connect 2 0 67 0;
#X connect 3 0 5 0;
#X connect 3 0 4 0;
#X connect 4 0 6 0;
#X connect 5 0 0 0;
#X connect 6 0 0 0;
#X connect 7 0 8 0;
#X connect 8 0 51 0;
#X connect 8 0 65 0;
#X connect 8 0 110 0;
#X connect 9 0 10 0;
#X connect 9 0 49 0;
#X connect 9 0 82 0;
#X connect 9 0 86 0;
#X connect 10 0 12 0;
#X connect 10 1 11 1;
#X connect 11 0 13 0;
#X connect 12 0 11 0;
#X connect 13 0 52 0;
#X connect 15 0 120 0;
#X connect 16 0 3 0;
#X connect 17 0 8 1;
#X connect 18 0 7 1;
#X connect 21 0 4 1;
#X connect 23 0 15 0;
#X connect 24 0 15 0;
#X connect 25 0 15 0;
#X connect 26 0 15 0;
#X connect 27 0 15 0;
#X connect 28 0 15 0;
#X connect 29 0 15 0;
#X connect 30 0 15 0;
#X connect 31 0 15 0;
#X connect 32 0 15 0;
#X connect 33 0 15 0;
#X connect 34 0 15 0;
#X connect 35 0 15 0;
#X connect 36 0 15 0;
#X connect 37 0 15 0;
#X connect 38 0 15 0;
#X connect 39 0 15 0;
#X connect 40 0 15 0;
#X connect 41 0 15 0;
#X connect 42 0 15 0;
#X connect 43 0 15 0;
#X connect 44 0 15 0;
#X connect 45 0 15 0;
#X connect 46 0 15 0;
#X connect 47 0 15 0;
#X connect 48 0 2 1;
#X connect 49 0 48 1;
#X connect 50 0 48 2;
#X connect 52 0 7 0;
#X connect 53 0 66 0;
#X connect 54 0 53 0;
#X connect 55 0 14 0;
#X connect 55 0 14 1;
#X connect 56 0 57 0;
#X connect 57 0 58 0;
#X connect 58 0 55 1;
#X connect 60 0 65 0;
#X connect 61 0 62 0;
#X connect 62 0 63 0;
#X connect 63 0 64 1;
#X connect 64 0 59 0;
#X connect 66 0 55 0;
#X connect 66 0 64 0;
#X connect 67 0 68 0;
#X connect 68 0 69 0;
#X connect 70 0 71 0;
#X connect 71 0 72 0;
#X connect 72 0 18 0;
#X connect 73 0 74 0;
#X connect 74 0 75 0;
#X connect 75 0 17 0;
#X connect 76 0 77 0;
#X connect 77 0 78 0;
#X connect 78 0 21 0;
#X connect 79 0 2 1;
#X connect 80 0 79 1;
#X connect 81 0 79 2;
#X connect 82 0 80 0;
#X connect 83 0 2 1;
#X connect 84 0 83 1;
#X connect 85 0 83 2;
#X connect 86 0 84 0;
#X connect 87 0 129 0;
#X connect 88 0 115 0;
#X connect 88 0 117 0;
#X connect 88 0 128 0;
#X connect 89 0 103 0;
#X connect 89 0 123 1;
#X connect 91 0 87 0;
#X connect 91 1 88 0;
#X connect 91 2 89 0;
#X connect 91 3 90 0;
#X connect 91 4 93 0;
#X connect 91 5 92 0;
#X connect 91 6 94 0;
#X connect 91 7 96 0;
#X connect 91 8 95 0;
#X connect 97 0 47 0;
#X connect 98 0 45 0;
#X connect 99 0 43 0;
#X connect 100 0 42 0;
#X connect 101 0 40 0;
#X connect 102 0 38 0;
#X connect 103 0 97 1;
#X connect 103 0 98 1;
#X connect 103 0 99 1;
#X connect 103 0 100 1;
#X connect 103 0 101 1;
#X connect 103 0 102 1;
#X connect 103 0 125 1;
#X connect 103 0 135 1;
#X connect 103 0 136 1;
#X connect 104 0 97 0;
#X connect 105 0 98 0;
#X connect 106 0 99 0;
#X connect 107 0 100 0;
#X connect 108 0 101 0;
#X connect 109 0 102 0;
#X connect 110 0 14 0;
#X connect 110 0 14 1;
#X connect 111 0 110 1;
#X connect 112 0 113 0;
#X connect 113 0 111 0;
#X connect 114 0 112 0;
#X connect 115 0 114 0;
#X connect 118 0 122 0;
#X connect 119 0 118 0;
#X connect 120 0 121 0;
#X connect 121 0 119 0;
#X connect 123 0 9 0;
#X connect 123 0 126 0;
#X connect 124 0 123 0;
#X connect 124 0 127 0;
#X connect 125 0 16 0;
#X connect 127 0 125 0;
#X connect 128 0 73 0;
#X connect 129 0 104 0;
#X connect 129 1 130 0;
#X connect 130 0 105 0;
#X connect 130 1 131 0;
#X connect 131 0 106 0;
#X connect 131 1 132 0;
#X connect 132 0 107 0;
#X connect 132 1 133 0;
#X connect 133 0 108 0;
#X connect 133 1 134 0;
#X connect 134 0 109 0;
#X connect 134 1 139 0;
#X connect 135 0 36 0;
#X connect 136 0 23 0;
#X connect 137 0 135 0;
#X connect 138 0 136 0;
#X connect 139 0 137 0;
#X connect 139 1 138 0;
