#N canvas 70 74 1949 1184 10;
#X obj 30 120 vline~;
#X obj 536 163 noise~;
#X obj 30 178 *~;
#X obj 30 44 bang;
#X obj 74 69 del 5;
#X msg 30 87 1 1;
#X msg 74 90 0 1;
#X obj 224 529 lop~ 4000;
#X obj 233 585 *~ 0.99;
#X obj 216 307 mtof;
#X obj 216 337 t b f;
#X obj 216 398 /;
#X msg 209 372 1;
#X obj 216 428 * 1000;
#X obj 225 667 dac~;
#X floatatom 292 148 5 0 0 0 - - -;
#X obj 517 -73 bng 15 250 50 0 empty empty empty 17 7 0 10 -262144
-1 -1;
#X floatatom 304 553 10 0 0 0 - - -;
#X floatatom 297 508 10 0 0 0 - - -;
#X text 378 553 decay;
#X text 371 509 cutoff;
#X floatatom 139 36 5 0 0 0 - - -;
#X text 183 37 delay;
#X msg 595 73 60;
#X msg 704 73 64;
#X msg 738 73 65;
#X msg 621 52 61;
#X msg 649 73 62;
#X msg 676 52 63;
#X msg 768 52 66;
#X msg 796 73 67;
#X msg 825 52 68;
#X msg 854 73 69;
#X msg 881 52 70;
#X msg 907 73 71;
#X msg 941 74 72;
#X msg 561 73 59;
#X msg 535 52 58;
#X msg 508 73 57;
#X msg 479 52 56;
#X msg 450 72 55;
#X msg 422 52 54;
#X msg 392 73 53;
#X msg 358 73 52;
#X msg 331 51 51;
#X msg 303 73 50;
#X msg 275 52 49;
#X msg 249 73 48;
#X obj 540 205 resofilt~ 3;
#X floatatom 613 159 5 0 0 0 - - -;
#X floatatom 669 173 5 0 0 0 - - -;
#X obj 78 620 delwrite~ deli 1000;
#X obj 216 479 vd~ deli 12;
#X obj 879 500 sig~;
#X floatatom 879 478 5 0 0 0 - - -;
#X obj 879 549 *~;
#X obj 1049 423 vsl 15 128 0 1 0 0 empty empty empty 0 -9 0 10 -262144
-1 -1 0 1;
#X msg 955 525 \$1 20;
#X obj 955 549 line~;
#X obj 924 707 s~ feedback;
#X obj 1040 695 r~ feedback;
#X obj 1103 508 vsl 15 128 0 1 0 0 empty empty empty 0 -9 0 10 -262144
-1 -1 0 1;
#X msg 1009 610 \$1 20;
#X obj 1009 634 line~;
#X obj 965 650 *~;
#X obj 1062 756 delwrite~ demitri 4000;
#X obj 879 523 vd~ demitri;
#X obj 102 196 env~;
#X obj 103 217 - 100;
#X obj 104 243 vu 15 120 empty empty -1 -8 0 10 -66577 -1 1 0;
#X obj 78 711 env~;
#X obj 79 732 - 100;
#X obj 80 758 vu 15 120 empty empty -1 -8 0 10 -66577 -1 1 0;
#X obj 560 744 env~;
#X obj 561 765 - 100;
#X obj 562 791 vu 15 120 empty empty -1 -8 0 10 -66577 -1 1 0;
#X obj 396 335 vsl 15 128 20 20000 0 0 empty empty empty 0 -9 0 10
-262144 -1 -1 2006 1;
#X msg 302 437 \$1 20;
#X obj 302 461 line;
#X obj 535 413 vsl 15 128 0.8 1 0 0 empty empty empty 0 -9 0 10 -262144
-1 -1 0 1;
#X msg 441 515 \$1 20;
#X obj 441 539 line;
#X obj 307 -126 vsl 15 128 0 100 0 0 empty empty empty 0 -9 0 10 -262144
-1 -1 0 1;
#X msg 213 -24 \$1 20;
#X obj 213 0 line;
#X obj 660 231 resofilt~ 3;
#X floatatom 733 185 5 0 0 0 - - -;
#X floatatom 789 199 5 0 0 0 - - -;
#X obj 745 134 * 2;
#X obj 793 256 resofilt~ 3;
#X floatatom 866 210 5 0 0 0 - - -;
#X floatatom 922 224 5 0 0 0 - - -;
#X obj 878 159 * 3;
#X obj 1033 164 adc~;
#X obj 1038 211 env~;
#X obj 1039 232 - 100;
#X obj 1040 258 vu 15 120 empty empty -1 -8 0 10 -66577 -1 1 0;
#X obj 1117 315 sel 1;
#X obj 1107 241 > 41;
#X floatatom 916 -107 5 0 0 0 - - -;
#X floatatom 951 -107 5 0 0 0 - - -;
#X floatatom 986 -107 5 0 0 0 - - -;
#X floatatom 1021 -107 5 0 0 0 - - -;
#N canvas 86 422 1157 471 OSCOSCOSCOSCOSCOSCOSC 0;
#X obj 9 11 dumpOSC 8000;
#X obj 4 93 outlet;
#X obj 78 100 outlet;
#X obj 150 157 outlet;
#X obj 20 118 print a;
#X obj 94 125 print b;
#X obj 166 182 print c;
#X obj 9 35 OSCroute /pos1 /size1 /pos2 /size2 /pos3 /size3;
#X obj 145 73 outlet;
#X obj 223 83 outlet;
#X obj 293 78 outlet;
#X obj 161 98 print d;
#X obj 239 108 print e;
#X obj 309 103 print f;
#X obj 426 109 print else;
#X connect 0 0 7 0;
#X connect 7 0 1 0;
#X connect 7 0 4 0;
#X connect 7 1 2 0;
#X connect 7 1 5 0;
#X connect 7 2 3 0;
#X connect 7 2 6 0;
#X connect 7 3 8 0;
#X connect 7 3 11 0;
#X connect 7 4 9 0;
#X connect 7 4 12 0;
#X connect 7 5 10 0;
#X connect 7 5 13 0;
#X connect 7 6 14 0;
#X restore 916 -131 pd OSCOSCOSCOSCOSCOSCOSC;
#X obj 211 226 print;
#X obj 778 -51 maxlib/scale 0 600 7.64451 2.02477;
#X floatatom 280 234 5 0 0 0 - - -;
#X obj 1308 3 grid grid1 600 0 199 600 0 199 1 1 1 10 10 1707.21 97.7657
;
#X floatatom 1308 -75 5 0 0 0 - - -;
#X floatatom 1353 -74 5 0 0 0 - - -;
#X obj 1308 -50 pack f f;
#X msg 1308 -26 goto \$1 \$2;
#X msg 1308 -101 bang;
#X text 1291 -76 X;
#X text 1393 -77 Y;
#X text 1354 -107 comment;
#X obj 835 -5 maxlib/scale 0 600 20 20000;
#X obj 1094 31 vsl 15 128 0 127 0 0 empty empty empty 0 -9 0 10 -262144
-1 -1 8450 1;
#X obj 1085 -5 maxlib/scale 0 600 0 127;
#X obj 1146 64 hsl 128 15 0 127 0 0 empty empty empty -2 -8 0 10 -262144
-1 -1 7080 1;
#X obj 1152 29 maxlib/scale 0 170 0 127;
#X connect 0 0 2 0;
#X connect 1 0 48 0;
#X connect 1 0 2 1;
#X connect 1 0 85 0;
#X connect 1 0 89 0;
#X connect 2 0 51 0;
#X connect 2 0 67 0;
#X connect 3 0 5 0;
#X connect 3 0 4 0;
#X connect 4 0 6 0;
#X connect 5 0 0 0;
#X connect 6 0 0 0;
#X connect 7 0 8 0;
#X connect 8 0 14 0;
#X connect 8 0 14 1;
#X connect 8 0 51 0;
#X connect 8 0 65 0;
#X connect 8 0 70 0;
#X connect 8 0 73 0;
#X connect 9 0 10 0;
#X connect 9 0 49 0;
#X connect 9 0 88 0;
#X connect 9 0 92 0;
#X connect 10 0 12 0;
#X connect 10 1 11 1;
#X connect 11 0 13 0;
#X connect 12 0 11 0;
#X connect 13 0 52 0;
#X connect 13 0 104 0;
#X connect 15 0 3 0;
#X connect 15 0 9 0;
#X connect 16 0 106 0;
#X connect 16 0 3 0;
#X connect 17 0 8 1;
#X connect 18 0 7 1;
#X connect 21 0 4 1;
#X connect 23 0 15 0;
#X connect 24 0 15 0;
#X connect 25 0 15 0;
#X connect 26 0 15 0;
#X connect 27 0 15 0;
#X connect 28 0 15 0;
#X connect 29 0 15 0;
#X connect 30 0 15 0;
#X connect 31 0 15 0;
#X connect 32 0 15 0;
#X connect 33 0 15 0;
#X connect 34 0 15 0;
#X connect 35 0 15 0;
#X connect 36 0 15 0;
#X connect 37 0 15 0;
#X connect 38 0 15 0;
#X connect 39 0 15 0;
#X connect 40 0 15 0;
#X connect 41 0 15 0;
#X connect 42 0 15 0;
#X connect 43 0 15 0;
#X connect 44 0 15 0;
#X connect 45 0 15 0;
#X connect 46 0 15 0;
#X connect 47 0 15 0;
#X connect 48 0 2 1;
#X connect 49 0 48 1;
#X connect 50 0 48 2;
#X connect 52 0 7 0;
#X connect 53 0 66 0;
#X connect 54 0 53 0;
#X connect 55 0 14 0;
#X connect 55 0 14 1;
#X connect 55 0 73 0;
#X connect 56 0 57 0;
#X connect 57 0 58 0;
#X connect 58 0 55 1;
#X connect 60 0 65 0;
#X connect 61 0 62 0;
#X connect 62 0 63 0;
#X connect 63 0 64 1;
#X connect 64 0 59 0;
#X connect 66 0 55 0;
#X connect 66 0 64 0;
#X connect 67 0 68 0;
#X connect 68 0 69 0;
#X connect 70 0 71 0;
#X connect 71 0 72 0;
#X connect 73 0 74 0;
#X connect 74 0 75 0;
#X connect 76 0 77 0;
#X connect 77 0 78 0;
#X connect 78 0 18 0;
#X connect 79 0 80 0;
#X connect 80 0 81 0;
#X connect 81 0 17 0;
#X connect 82 0 83 0;
#X connect 83 0 84 0;
#X connect 84 0 21 0;
#X connect 85 0 2 1;
#X connect 86 0 85 1;
#X connect 87 0 85 2;
#X connect 88 0 86 0;
#X connect 89 0 2 1;
#X connect 90 0 89 1;
#X connect 91 0 89 2;
#X connect 92 0 90 0;
#X connect 93 0 94 0;
#X connect 94 0 95 0;
#X connect 94 0 98 0;
#X connect 95 0 96 0;
#X connect 98 0 97 0;
#X connect 99 0 105 0;
#X connect 99 0 108 0;
#X connect 100 0 109 0;
#X connect 100 0 116 0;
#X connect 103 0 99 0;
#X connect 103 0 118 0;
#X connect 103 1 100 0;
#X connect 103 1 120 0;
#X connect 103 3 101 0;
#X connect 105 0 106 0;
#X connect 106 0 52 0;
#X connect 108 0 110 0;
#X connect 109 0 110 1;
#X connect 109 0 112 0;
#X connect 110 0 111 0;
#X connect 111 0 107 0;
#X connect 112 0 108 0;
#X connect 116 0 76 0;
#X connect 118 0 117 0;
#X connect 120 0 119 0;
