#N canvas 535 102 1196 887 10;
#X obj 216 455 lop~ 4000;
#X obj 216 532 *~ 0.99;
#X obj 216 307 mtof;
#X obj 216 329 t b f;
#X obj 216 378 /;
#X msg 216 352 1;
#X obj 216 402 * 1000;
#X obj 215 647 dac~;
#X floatatom 20 73 5 0 0 0 - - -;
#X floatatom 282 516 10 0 0 0 - - -;
#X floatatom 313 440 10 0 0 0 - - -;
#X text 372 481 decay;
#X text 386 404 cutoff;
#X msg 507 42 60;
#X msg 445 42 58;
#X msg 377 42 56;
#X msg 300 42 55;
#X msg 236 42 53;
#X msg 159 42 51;
#X msg 93 42 50;
#X msg 20 42 48;
#X obj 40 547 delwrite~ deli 1000;
#X obj 216 425 vd~ deli 12;
#X obj 644 416 sig~;
#X floatatom 644 394 5 0 0 0 - - -;
#X obj 644 465 *~;
#X obj 814 339 vsl 15 128 0 1 0 0 empty empty empty 0 -9 0 10 -262144
-1 -1 8600 1;
#X msg 720 441 \$1 20;
#X obj 720 465 line~;
#X obj 730 592 s~ feedback;
#X obj 25 590 r~ feedback;
#X obj 868 424 vsl 15 128 0 1 0 0 empty empty empty 0 -9 0 10 -262144
-1 -1 5300 1;
#X msg 774 526 \$1 20;
#X obj 774 550 line~;
#X obj 730 566 *~;
#X obj 25 616 delwrite~ demitri 4000;
#X obj 644 439 vd~ demitri;
#X obj 364 381 vsl 15 50 20 20000 0 0 empty empty empty 0 -9 0 10 -262144
-1 -1 0 1;
#X msg 313 394 \$1 20;
#X obj 313 417 line;
#X obj 352 469 vsl 15 50 0.8 1 0 0 empty empty empty 0 -9 0 10 -262144
-1 -1 0 1;
#X msg 282 468 \$1 20;
#X obj 282 492 line;
#X floatatom 638 -106 5 0 0 0 - - -;
#X floatatom 655 -79 5 0 0 0 - - -;
#X floatatom 672 -56 5 0 0 0 - - -;
#X floatatom 690 -106 5 0 0 0 - - -;
#N canvas 761 412 1157 471 OSCOSCOSCOSCOSCOSCOSC 0;
#X obj 9 11 dumpOSC 8000;
#X obj -14 99 outlet;
#X obj 45 172 outlet;
#X obj 96 240 outlet;
#X obj 107 84 outlet;
#X obj 173 141 outlet;
#X obj 210 233 outlet;
#X obj 426 109 print else;
#X obj 223 84 outlet;
#X obj 289 141 outlet;
#X obj 326 233 outlet;
#X obj 2 124 print S1Pos;
#X obj 112 265 print S1Touch;
#X obj 123 109 print S2Pos;
#X obj 239 109 print S3Pos;
#X obj 61 197 print S1Size;
#X obj 189 166 print S2Size;
#X obj 304 166 print S3Size;
#X obj 226 258 print S2Touch;
#X obj 342 258 print S3Touch;
#X obj 9 35 OSCroute /pos1 /size1 /touch1 /pos2 /size2 /touch2 /pos3
/size3 /touch3;
#X connect 0 0 20 0;
#X connect 20 0 1 0;
#X connect 20 0 11 0;
#X connect 20 1 2 0;
#X connect 20 1 15 0;
#X connect 20 2 3 0;
#X connect 20 2 12 0;
#X connect 20 3 4 0;
#X connect 20 3 13 0;
#X connect 20 4 5 0;
#X connect 20 4 16 0;
#X connect 20 5 6 0;
#X connect 20 5 18 0;
#X connect 20 6 8 0;
#X connect 20 6 14 0;
#X connect 20 7 9 0;
#X connect 20 7 17 0;
#X connect 20 8 10 0;
#X connect 20 8 19 0;
#X connect 20 9 7 0;
#X restore 638 -131 pd OSCOSCOSCOSCOSCOSCOSC;
#X floatatom 726 -56 5 0 0 0 - - -;
#X floatatom 708 -79 5 0 0 0 - - -;
#X floatatom 743 -106 5 0 0 0 - - -;
#X floatatom 779 -56 5 0 0 0 - - -;
#X floatatom 761 -79 5 0 0 0 - - -;
#X obj 20 14 onebang;
#X obj 93 14 onebang;
#X obj 159 14 onebang;
#X obj 237 14 onebang;
#X obj 300 14 onebang;
#X obj 377 14 onebang;
#X obj 59 -84 sel 0;
#X obj 20 -10 bng 15 250 50 0 empty empty empty 17 7 0 10 -262144 -1
-1;
#X obj 93 -10 bng 15 250 50 0 empty empty empty 17 7 0 10 -262144 -1
-1;
#X obj 159 -10 bng 15 250 50 0 empty empty empty 17 7 0 10 -262144
-1 -1;
#X obj 237 -10 bng 15 250 50 0 empty empty empty 17 7 0 10 -262144
-1 -1;
#X obj 300 -10 bng 15 250 50 0 empty empty empty 17 7 0 10 -262144
-1 -1;
#X obj 377 -10 bng 15 250 50 0 empty empty empty 17 7 0 10 -262144
-1 -1;
#X floatatom 20 138 5 0 0 0 - - -;
#X obj 20 116 line;
#X msg 20 93 \$1 50;
#X obj 20 159 s trig;
#X obj 216 259 spigot;
#X obj 216 233 r trig;
#X floatatom 225 283 5 0 0 0 - - -;
#X obj 20 -33 moses 87.5;
#X obj 93 -33 moses 175;
#X obj 159 -33 moses 262.5;
#X obj 237 -33 moses 350;
#X obj 300 -33 moses 437.5;
#X obj 377 -33 moses 525;
#X obj 444 14 onebang;
#X obj 507 14 onebang;
#X obj 444 -10 bng 15 250 50 0 empty empty empty 17 7 0 10 -262144
-1 -1;
#X obj 507 -10 bng 15 250 50 0 empty empty empty 17 7 0 10 -262144
-1 -1;
#X obj 444 -33 moses 612.5;
#X obj 98 279 adc~;
#X obj 91 329 env~;
#X obj 92 350 - 100;
#X obj 93 376 vu 15 120 empty empty -1 -8 0 10 -66577 -1 1 0;
#X obj 423 450 maxlib/scale 60 120 0 1;
#X connect 0 0 1 0;
#X connect 1 0 21 0;
#X connect 1 0 35 0;
#X connect 1 0 7 0;
#X connect 1 0 7 1;
#X connect 2 0 3 0;
#X connect 3 0 5 0;
#X connect 3 1 4 1;
#X connect 4 0 6 0;
#X connect 5 0 4 0;
#X connect 6 0 22 0;
#X connect 8 0 68 0;
#X connect 9 0 1 1;
#X connect 10 0 0 1;
#X connect 13 0 8 0;
#X connect 14 0 8 0;
#X connect 15 0 8 0;
#X connect 16 0 8 0;
#X connect 17 0 8 0;
#X connect 18 0 8 0;
#X connect 19 0 8 0;
#X connect 20 0 8 0;
#X connect 22 0 0 0;
#X connect 23 0 36 0;
#X connect 24 0 23 0;
#X connect 25 0 7 0;
#X connect 25 0 7 1;
#X connect 26 0 27 0;
#X connect 27 0 28 0;
#X connect 28 0 25 1;
#X connect 30 0 35 0;
#X connect 31 0 32 0;
#X connect 32 0 33 0;
#X connect 33 0 34 1;
#X connect 34 0 29 0;
#X connect 36 0 25 0;
#X connect 36 0 34 0;
#X connect 37 0 38 0;
#X connect 38 0 39 0;
#X connect 39 0 10 0;
#X connect 40 0 41 0;
#X connect 41 0 42 0;
#X connect 42 0 9 0;
#X connect 43 0 73 0;
#X connect 44 0 88 0;
#X connect 45 0 59 0;
#X connect 45 0 70 1;
#X connect 47 0 43 0;
#X connect 47 1 44 0;
#X connect 47 2 45 0;
#X connect 47 3 46 0;
#X connect 47 4 49 0;
#X connect 47 5 48 0;
#X connect 47 6 50 0;
#X connect 47 7 52 0;
#X connect 47 8 51 0;
#X connect 53 0 20 0;
#X connect 53 0 54 1;
#X connect 53 0 55 1;
#X connect 53 0 56 1;
#X connect 53 0 57 1;
#X connect 53 0 58 1;
#X connect 53 0 79 1;
#X connect 53 0 80 1;
#X connect 54 0 19 0;
#X connect 54 0 53 1;
#X connect 54 0 55 1;
#X connect 54 0 56 1;
#X connect 54 0 57 1;
#X connect 54 0 58 1;
#X connect 54 0 79 1;
#X connect 54 0 80 1;
#X connect 55 0 53 1;
#X connect 55 0 54 1;
#X connect 55 0 56 1;
#X connect 55 0 57 1;
#X connect 55 0 58 1;
#X connect 55 0 79 1;
#X connect 55 0 80 1;
#X connect 55 0 18 0;
#X connect 56 0 17 0;
#X connect 56 0 53 1;
#X connect 56 0 54 1;
#X connect 56 0 55 1;
#X connect 56 0 57 1;
#X connect 56 0 58 1;
#X connect 56 0 79 1;
#X connect 56 0 80 1;
#X connect 57 0 16 0;
#X connect 57 0 53 1;
#X connect 57 0 54 1;
#X connect 57 0 55 1;
#X connect 57 0 56 1;
#X connect 57 0 58 1;
#X connect 57 0 79 1;
#X connect 57 0 80 1;
#X connect 58 0 53 1;
#X connect 58 0 54 1;
#X connect 58 0 55 1;
#X connect 58 0 56 1;
#X connect 58 0 57 1;
#X connect 58 0 79 1;
#X connect 58 0 80 1;
#X connect 58 0 15 0;
#X connect 59 0 53 1;
#X connect 59 0 54 1;
#X connect 59 0 55 1;
#X connect 59 0 56 1;
#X connect 59 0 57 1;
#X connect 59 0 58 1;
#X connect 59 0 79 1;
#X connect 59 0 80 1;
#X connect 60 0 53 0;
#X connect 61 0 54 0;
#X connect 62 0 55 0;
#X connect 63 0 56 0;
#X connect 64 0 57 0;
#X connect 65 0 58 0;
#X connect 66 0 69 0;
#X connect 67 0 66 0;
#X connect 68 0 67 0;
#X connect 70 0 2 0;
#X connect 70 0 72 0;
#X connect 71 0 70 0;
#X connect 73 0 60 0;
#X connect 73 1 74 0;
#X connect 74 0 61 0;
#X connect 74 1 75 0;
#X connect 75 0 62 0;
#X connect 75 1 76 0;
#X connect 76 0 63 0;
#X connect 76 1 77 0;
#X connect 77 0 64 0;
#X connect 77 1 78 0;
#X connect 78 0 65 0;
#X connect 78 1 83 0;
#X connect 79 0 53 1;
#X connect 79 0 54 1;
#X connect 79 0 55 1;
#X connect 79 0 56 1;
#X connect 79 0 57 1;
#X connect 79 0 58 1;
#X connect 79 0 80 1;
#X connect 79 0 14 0;
#X connect 80 0 13 0;
#X connect 80 0 53 1;
#X connect 80 0 54 1;
#X connect 80 0 55 1;
#X connect 80 0 56 1;
#X connect 80 0 57 1;
#X connect 80 0 58 1;
#X connect 80 0 79 1;
#X connect 81 0 79 0;
#X connect 82 0 80 0;
#X connect 83 0 81 0;
#X connect 83 1 82 0;
#X connect 84 0 85 0;
#X connect 84 0 21 0;
#X connect 85 0 86 0;
#X connect 86 0 87 0;
#X connect 88 0 40 0;
