#N canvas 985 23 1707 1303 10;
#X floatatom -4 42 5 0 0 0 - - -;
#X floatatom 655 143 10 0 0 0 - - -;
#X obj 1166 429 sig~;
#X floatatom 1166 407 5 0 0 0 - - -;
#X obj 1166 478 *~;
#X obj 1242 313 vsl 15 128 0 1 0 0 empty empty empty 0 -9 0 10 -262144
-1 -1 7600 1;
#X msg 1242 454 \$1 20;
#X obj 1242 478 line~;
#X obj 1252 605 s~ feedback;
#X obj 1079 525 r~ feedback;
#X obj 1296 397 vsl 15 128 0 1 0 0 empty empty empty 0 -9 0 10 -262144
-1 -1 5600 1;
#X msg 1296 539 \$1 20;
#X obj 1296 563 line~;
#X obj 1252 579 *~;
#X obj 1079 549 delwrite~ demitri 4000;
#X obj 1166 452 vd~ demitri;
#X obj 725 96 vsl 15 50 0.8 1 0 0 empty empty empty 0 -9 0 10 -262144
-1 -1 4200 1;
#X msg 655 95 \$1 20;
#X obj 655 119 line;
#X floatatom 638 -106 5 0 0 0 - - -;
#X floatatom 655 -79 5 0 0 0 - - -;
#X floatatom 672 -56 5 0 0 0 - - -;
#X floatatom 690 -106 5 0 0 0 - - -;
#N canvas 1260 570 1157 471 OSCOSCOSCOSCOSCOSCOSC 1;
#X obj 9 11 dumpOSC 8000;
#X obj -14 99 outlet;
#X obj 45 172 outlet;
#X obj 96 240 outlet;
#X obj 107 84 outlet;
#X obj 173 141 outlet;
#X obj 210 233 outlet;
#X obj 426 109 print else;
#X obj 223 84 outlet;
#X obj 289 141 outlet;
#X obj 326 233 outlet;
#X obj 2 124 print S1Pos;
#X obj 112 265 print S1Touch;
#X obj 123 109 print S2Pos;
#X obj 239 109 print S3Pos;
#X obj 61 197 print S1Size;
#X obj 189 166 print S2Size;
#X obj 304 166 print S3Size;
#X obj 226 258 print S2Touch;
#X obj 342 258 print S3Touch;
#X obj 9 35 OSCroute /pos1 /size1 /touch1 /pos2 /size2 /touch2 /pos3
/size3 /touch3;
#X connect 0 0 20 0;
#X connect 20 0 1 0;
#X connect 20 0 11 0;
#X connect 20 1 2 0;
#X connect 20 1 15 0;
#X connect 20 2 3 0;
#X connect 20 2 12 0;
#X connect 20 3 4 0;
#X connect 20 3 13 0;
#X connect 20 4 5 0;
#X connect 20 4 16 0;
#X connect 20 5 6 0;
#X connect 20 5 18 0;
#X connect 20 6 8 0;
#X connect 20 6 14 0;
#X connect 20 7 9 0;
#X connect 20 7 17 0;
#X connect 20 8 10 0;
#X connect 20 8 19 0;
#X connect 20 9 7 0;
#X restore 638 -131 pd OSCOSCOSCOSCOSCOSCOSC;
#X floatatom 726 -56 5 0 0 0 - - -;
#X floatatom 708 -79 5 0 0 0 - - -;
#X floatatom 743 -106 5 0 0 0 - - -;
#X floatatom 779 -56 5 0 0 0 - - -;
#X floatatom 761 -79 5 0 0 0 - - -;
#X obj -4 -17 onebang;
#X obj 69 -17 onebang;
#X obj 135 -17 onebang;
#X obj 213 -17 onebang;
#X obj 276 -17 onebang;
#X obj 353 -17 onebang;
#X obj 35 -115 sel 0;
#X obj -4 -41 bng 15 250 50 0 empty empty empty 17 7 0 10 -262144 -1
-1;
#X obj 69 -41 bng 15 250 50 0 empty empty empty 17 7 0 10 -262144 -1
-1;
#X obj 135 -41 bng 15 250 50 0 empty empty empty 17 7 0 10 -262144
-1 -1;
#X obj 213 -41 bng 15 250 50 0 empty empty empty 17 7 0 10 -262144
-1 -1;
#X obj 276 -41 bng 15 250 50 0 empty empty empty 17 7 0 10 -262144
-1 -1;
#X obj 353 -41 bng 15 250 50 0 empty empty empty 17 7 0 10 -262144
-1 -1;
#X obj -4 -64 moses 87.5;
#X obj 69 -64 moses 175;
#X obj 135 -64 moses 262.5;
#X obj 213 -64 moses 350;
#X obj 276 -64 moses 437.5;
#X obj 353 -64 moses 525;
#X obj 420 -17 onebang;
#X obj 483 -17 onebang;
#X obj 420 -41 bng 15 250 50 0 empty empty empty 17 7 0 10 -262144
-1 -1;
#X obj 483 -41 bng 15 250 50 0 empty empty empty 17 7 0 10 -262144
-1 -1;
#X obj 420 -64 moses 612.5;
#X obj -4 410 adc~;
#X obj 94 532 env~;
#X obj 95 553 - 100;
#X obj 96 579 vu 15 120 empty empty -1 -8 0 10 -66577 -1 1 0;
#X obj 670 -8 edge;
#X msg 695 37 0;
#X msg 652 64 \$1 20;
#X msg 652 39 1;
#X obj 924 856 freeverb~;
#X msg 946 723 roomsize \$1;
#X msg 946 745 damping \$1;
#X msg 946 767 width \$1;
#X msg 946 789 wet \$1;
#X msg 946 811 dry \$1;
#X msg 946 833 bypass \$1;
#X floatatom 1027 723 5 0 0 0 - - -;
#X floatatom 1027 745 5 0 0 0 - - -;
#X floatatom 1027 767 5 0 0 0 - - -;
#X floatatom 1027 789 5 0 0 0 - - -;
#X floatatom 1027 811 5 0 0 0 - - -;
#X floatatom 1027 834 5 0 0 0 - - -;
#X msg 695 62 \$1 200;
#X obj 599 168 maxlib/scale 20 200 0 1;
#X msg 601 219 \$1 20;
#X obj 601 246 line;
#X floatatom 601 195 5 0 0 0 - - -;
#X obj 1099 713 vsl 15 128 0 1 0 0 empty empty empty 0 -9 0 10 -262144
-1 -1 12700 1;
#X obj 1118 713 vsl 15 128 0 1 0 0 empty empty empty 0 -9 0 10 -262144
-1 -1 12700 1;
#X obj 1137 713 vsl 15 128 0 1 0 0 empty empty empty 0 -9 0 10 -262144
-1 -1 12700 1;
#X obj 1155 712 vsl 15 128 0 1 0 0 empty empty empty 0 -9 0 10 -262144
-1 -1 8100 1;
#X obj 1174 712 vsl 15 128 0 1 0 0 empty empty empty 0 -9 0 10 -262144
-1 -1 7000 1;
#X obj 1198 806 tgl 15 0 empty empty empty 17 7 0 10 -262144 -1 -1
0 1;
#X floatatom 64 375 5 0 0 0 - - -;
#X obj 64 316 onebang;
#X obj 137 316 onebang;
#X obj 203 316 onebang;
#X obj 281 316 onebang;
#X obj 344 316 onebang;
#X obj 421 316 onebang;
#X obj 103 218 sel 0;
#X obj 64 292 bng 15 250 50 0 empty empty empty 17 7 0 10 -262144 -1
-1;
#X obj 137 292 bng 15 250 50 0 empty empty empty 17 7 0 10 -262144
-1 -1;
#X obj 203 292 bng 15 250 50 0 empty empty empty 17 7 0 10 -262144
-1 -1;
#X obj 281 292 bng 15 250 50 0 empty empty empty 17 7 0 10 -262144
-1 -1;
#X obj 344 292 bng 15 250 50 0 empty empty empty 17 7 0 10 -262144
-1 -1;
#X obj 421 292 bng 15 250 50 0 empty empty empty 17 7 0 10 -262144
-1 -1;
#X obj 64 269 moses 87.5;
#X obj 137 269 moses 175;
#X obj 203 269 moses 262.5;
#X obj 281 269 moses 350;
#X obj 344 269 moses 437.5;
#X obj 421 269 moses 525;
#X obj 488 316 onebang;
#X obj 551 316 onebang;
#X obj 488 292 bng 15 250 50 0 empty empty empty 17 7 0 10 -262144
-1 -1;
#X obj 551 292 bng 15 250 50 0 empty empty empty 17 7 0 10 -262144
-1 -1;
#X obj 488 269 moses 612.5;
#X obj 811 590 *~ 0.99;
#X obj 812 417 mtof;
#X obj 812 439 t b f;
#X obj 812 488 /;
#X msg 812 462 1;
#X obj 812 512 * 1000;
#X obj 811 614 *~;
#X floatatom 876 475 10 0 0 0 - - -;
#X text 954 426 cutoff;
#X obj 927 416 vsl 15 50 20 20000 0 0 empty empty empty 0 -9 0 10 -262144
-1 -1 0 1;
#X msg 876 429 \$1 20;
#X obj 876 452 line;
#X floatatom 1028 164 10 0 0 0 - - -;
#X text 1118 129 decay;
#X obj 1098 117 vsl 15 50 0.8 1 0 0 empty empty empty 0 -9 0 10 -262144
-1 -1 4700 1;
#X msg 1028 116 \$1 20;
#X obj 1028 140 line;
#X obj 1045 -4 edge;
#X msg 1068 58 0;
#X msg 1025 85 \$1 20;
#X msg 1025 60 1;
#X msg 1068 83 \$1 200;
#X obj 972 189 maxlib/scale 20 200 0 1;
#X msg 974 240 \$1 20;
#X obj 974 267 line;
#X floatatom 974 216 5 0 0 0 - - -;
#X obj 80 716 delwrite~ dheli1 1000;
#X obj 42 761 delwrite~ dheli2 1000;
#X obj 996 890 env~;
#X obj 997 911 - 100;
#X obj 998 937 vu 15 120 empty empty -1 -8 0 10 -66577 -1 1 0;
#X obj 349 910 env~;
#X obj 350 931 - 100;
#X obj 351 957 vu 15 120 empty empty -1 -8 0 10 -66577 -1 1 0;
#X obj 1378 390 env~;
#X obj 1379 411 - 100;
#X obj 1380 437 vu 15 120 empty empty -1 -8 0 10 -66577 -1 1 0;
#X obj 294 577 lop~ 4000;
#X obj 294 610 *~ 0.99;
#X obj 294 429 mtof;
#X obj 294 451 t b f;
#X obj 294 500 /;
#X msg 294 474 1;
#X obj 294 524 * 1000;
#X obj 294 634 *~;
#X floatatom 358 487 10 0 0 0 - - -;
#X text 436 438 cutoff;
#X obj 409 428 vsl 15 50 20 20000 0 0 empty empty empty 0 -9 0 10 -262144
-1 -1 0 1;
#X msg 358 441 \$1 20;
#X obj 358 464 line;
#X obj 163 867 env~;
#X obj 164 888 - 100;
#X obj 165 914 vu 15 120 empty empty -1 -8 0 10 -66577 -1 1 0;
#X obj 261 1017 dac~;
#X obj 294 547 vd~ dheli1 12;
#X obj 261 921 *~;
#X obj 293 922 *~;
#X obj 429 926 vsl 15 128 0 1 0 0 empty empty empty 0 -9 0 10 -262144
-1 -1 9500 1;
#X floatatom 73 476 5 0 0 0 - - -;
#X obj 34 441 sigmund~ -hop 4096 pitch env;
#X floatatom 174 485 5 0 0 0 - - -;
#X obj 812 562 lop~ 4000;
#X obj 561 610 *~ 0.99;
#X obj 562 437 mtof;
#X obj 562 459 t b f;
#X obj 562 508 /;
#X msg 562 482 1;
#X obj 562 532 * 1000;
#X obj 561 634 *~;
#X floatatom 626 495 10 0 0 0 - - -;
#X text 704 446 cutoff;
#X obj 677 436 vsl 15 50 20 20000 0 0 empty empty empty 0 -9 0 10 -262144
-1 -1 0 1;
#X msg 626 449 \$1 20;
#X obj 626 472 line;
#X obj 562 555 vd~ dheli2 12;
#X obj 562 582 lop~ 4000;
#X text 759 112 decay;
#X floatatom 831 176 10 0 0 0 - - -;
#X text 921 141 decay;
#X obj 901 129 vsl 15 50 0.8 1 0 0 empty empty empty 0 -9 0 10 -262144
-1 -1 4100 1;
#X msg 831 128 \$1 20;
#X obj 831 152 line;
#X obj 848 8 edge;
#X msg 871 70 0;
#X msg 828 97 \$1 20;
#X msg 828 72 1;
#X msg 871 95 \$1 200;
#X obj 775 201 maxlib/scale 20 200 0 1;
#X msg 777 252 \$1 20;
#X obj 777 279 line;
#X floatatom 777 228 5 0 0 0 - - -;
#X floatatom 18 210 5 0 0 0 - - -;
#X msg 91 179 50;
#X msg 18 179 48;
#X obj 18 151 onebang;
#X obj 91 151 onebang;
#X obj 157 151 onebang;
#X obj 235 151 onebang;
#X obj 298 151 onebang;
#X obj 375 151 onebang;
#X obj 57 53 sel 0;
#X obj 18 127 bng 15 250 50 0 empty empty empty 17 7 0 10 -262144 -1
-1;
#X obj 91 127 bng 15 250 50 0 empty empty empty 17 7 0 10 -262144 -1
-1;
#X obj 157 127 bng 15 250 50 0 empty empty empty 17 7 0 10 -262144
-1 -1;
#X obj 235 127 bng 15 250 50 0 empty empty empty 17 7 0 10 -262144
-1 -1;
#X obj 298 127 bng 15 250 50 0 empty empty empty 17 7 0 10 -262144
-1 -1;
#X obj 375 127 bng 15 250 50 0 empty empty empty 17 7 0 10 -262144
-1 -1;
#X obj 18 104 moses 87.5;
#X obj 91 104 moses 175;
#X obj 157 104 moses 262.5;
#X obj 235 104 moses 350;
#X obj 298 104 moses 437.5;
#X obj 375 104 moses 525;
#X obj 442 151 onebang;
#X obj 505 151 onebang;
#X obj 442 127 bng 15 250 50 0 empty empty empty 17 7 0 10 -262144
-1 -1;
#X obj 505 127 bng 15 250 50 0 empty empty empty 17 7 0 10 -262144
-1 -1;
#X obj 442 104 moses 612.5;
#X obj 812 535 vd~ dheli3 12;
#X obj 34 813 delwrite~ dheli3 1000;
#X msg 64 344 45;
#X msg 137 344 47;
#X msg 203 344 48;
#X msg 280 344 50;
#X msg 344 344 52;
#X msg 421 344 53;
#X msg 489 344 55;
#X msg 551 344 57;
#X msg 157 179 52;
#X msg 234 179 53;
#X msg 298 179 55;
#X msg 375 179 57;
#X msg 443 179 59;
#X msg 505 179 60;
#X msg -4 11 52;
#X msg 69 11 53;
#X msg 135 11 55;
#X msg 212 11 57;
#X msg 276 11 59;
#X msg 353 11 60;
#X msg 421 11 62;
#X msg 483 11 64;
#X connect 0 0 149 0;
#X connect 1 0 148 1;
#X connect 2 0 15 0;
#X connect 3 0 2 0;
#X connect 4 0 144 0;
#X connect 4 0 165 0;
#X connect 4 0 166 0;
#X connect 5 0 6 0;
#X connect 6 0 7 0;
#X connect 7 0 4 1;
#X connect 9 0 14 0;
#X connect 10 0 11 0;
#X connect 11 0 12 0;
#X connect 12 0 13 1;
#X connect 13 0 8 0;
#X connect 15 0 4 0;
#X connect 15 0 13 0;
#X connect 16 0 17 0;
#X connect 17 0 18 0;
#X connect 18 0 1 0;
#X connect 19 0 42 0;
#X connect 20 0 75 0;
#X connect 21 0 35 0;
#X connect 21 0 57 0;
#X connect 22 0 217 0;
#X connect 23 0 19 0;
#X connect 23 1 20 0;
#X connect 23 2 21 0;
#X connect 23 3 22 0;
#X connect 23 4 25 0;
#X connect 23 5 24 0;
#X connect 23 6 26 0;
#X connect 23 7 28 0;
#X connect 23 8 27 0;
#X connect 24 0 210 0;
#X connect 24 0 192 0;
#X connect 25 0 197 0;
#X connect 26 0 99 0;
#X connect 27 0 92 0;
#X connect 27 0 127 0;
#X connect 28 0 132 0;
#X connect 29 0 244 0;
#X connect 29 0 30 1;
#X connect 29 0 31 1;
#X connect 29 0 32 1;
#X connect 29 0 33 1;
#X connect 29 0 34 1;
#X connect 29 0 48 1;
#X connect 29 0 49 1;
#X connect 30 0 245 0;
#X connect 30 0 29 1;
#X connect 30 0 31 1;
#X connect 30 0 32 1;
#X connect 30 0 33 1;
#X connect 30 0 34 1;
#X connect 30 0 48 1;
#X connect 30 0 49 1;
#X connect 31 0 29 1;
#X connect 31 0 30 1;
#X connect 31 0 32 1;
#X connect 31 0 33 1;
#X connect 31 0 34 1;
#X connect 31 0 48 1;
#X connect 31 0 49 1;
#X connect 31 0 246 0;
#X connect 32 0 247 0;
#X connect 32 0 29 1;
#X connect 32 0 30 1;
#X connect 32 0 31 1;
#X connect 32 0 33 1;
#X connect 32 0 34 1;
#X connect 32 0 48 1;
#X connect 32 0 49 1;
#X connect 33 0 248 0;
#X connect 33 0 29 1;
#X connect 33 0 30 1;
#X connect 33 0 31 1;
#X connect 33 0 32 1;
#X connect 33 0 34 1;
#X connect 33 0 48 1;
#X connect 33 0 49 1;
#X connect 34 0 29 1;
#X connect 34 0 30 1;
#X connect 34 0 31 1;
#X connect 34 0 32 1;
#X connect 34 0 33 1;
#X connect 34 0 48 1;
#X connect 34 0 49 1;
#X connect 34 0 249 0;
#X connect 35 0 29 1;
#X connect 35 0 30 1;
#X connect 35 0 31 1;
#X connect 35 0 32 1;
#X connect 35 0 33 1;
#X connect 35 0 34 1;
#X connect 35 0 48 1;
#X connect 35 0 49 1;
#X connect 36 0 29 0;
#X connect 37 0 30 0;
#X connect 38 0 31 0;
#X connect 39 0 32 0;
#X connect 40 0 33 0;
#X connect 41 0 34 0;
#X connect 42 0 36 0;
#X connect 42 1 43 0;
#X connect 43 0 37 0;
#X connect 43 1 44 0;
#X connect 44 0 38 0;
#X connect 44 1 45 0;
#X connect 45 0 39 0;
#X connect 45 1 46 0;
#X connect 46 0 40 0;
#X connect 46 1 47 0;
#X connect 47 0 41 0;
#X connect 47 1 52 0;
#X connect 48 0 29 1;
#X connect 48 0 30 1;
#X connect 48 0 31 1;
#X connect 48 0 32 1;
#X connect 48 0 33 1;
#X connect 48 0 34 1;
#X connect 48 0 49 1;
#X connect 48 0 250 0;
#X connect 49 0 251 0;
#X connect 49 0 29 1;
#X connect 49 0 30 1;
#X connect 49 0 31 1;
#X connect 49 0 32 1;
#X connect 49 0 33 1;
#X connect 49 0 34 1;
#X connect 49 0 48 1;
#X connect 50 0 48 0;
#X connect 51 0 49 0;
#X connect 52 0 50 0;
#X connect 52 1 51 0;
#X connect 53 0 54 0;
#X connect 53 0 136 0;
#X connect 53 0 137 0;
#X connect 53 0 169 0;
#X connect 53 0 229 0;
#X connect 54 0 55 0;
#X connect 55 0 56 0;
#X connect 57 0 60 0;
#X connect 57 1 58 0;
#X connect 58 0 74 0;
#X connect 59 0 18 0;
#X connect 60 0 59 0;
#X connect 61 0 138 0;
#X connect 61 0 165 0;
#X connect 61 0 166 0;
#X connect 62 0 61 0;
#X connect 63 0 61 0;
#X connect 64 0 61 0;
#X connect 65 0 61 0;
#X connect 66 0 61 0;
#X connect 67 0 61 0;
#X connect 68 0 62 0;
#X connect 69 0 63 0;
#X connect 70 0 64 0;
#X connect 71 0 65 0;
#X connect 72 0 66 0;
#X connect 73 0 67 0;
#X connect 74 0 18 0;
#X connect 75 0 78 0;
#X connect 76 0 77 0;
#X connect 77 0 154 1;
#X connect 78 0 76 0;
#X connect 79 0 68 0;
#X connect 80 0 69 0;
#X connect 81 0 70 0;
#X connect 82 0 71 0;
#X connect 83 0 72 0;
#X connect 84 0 73 0;
#X connect 85 0 111 0;
#X connect 86 0 230 0;
#X connect 86 0 87 1;
#X connect 86 0 88 1;
#X connect 86 0 89 1;
#X connect 86 0 90 1;
#X connect 86 0 91 1;
#X connect 86 0 105 1;
#X connect 86 0 106 1;
#X connect 87 0 231 0;
#X connect 87 0 86 1;
#X connect 87 0 88 1;
#X connect 87 0 89 1;
#X connect 87 0 90 1;
#X connect 87 0 91 1;
#X connect 87 0 105 1;
#X connect 87 0 106 1;
#X connect 88 0 86 1;
#X connect 88 0 87 1;
#X connect 88 0 89 1;
#X connect 88 0 90 1;
#X connect 88 0 91 1;
#X connect 88 0 105 1;
#X connect 88 0 106 1;
#X connect 88 0 232 0;
#X connect 89 0 233 0;
#X connect 89 0 86 1;
#X connect 89 0 87 1;
#X connect 89 0 88 1;
#X connect 89 0 90 1;
#X connect 89 0 91 1;
#X connect 89 0 105 1;
#X connect 89 0 106 1;
#X connect 90 0 234 0;
#X connect 90 0 86 1;
#X connect 90 0 87 1;
#X connect 90 0 88 1;
#X connect 90 0 89 1;
#X connect 90 0 91 1;
#X connect 90 0 105 1;
#X connect 90 0 106 1;
#X connect 91 0 86 1;
#X connect 91 0 87 1;
#X connect 91 0 88 1;
#X connect 91 0 89 1;
#X connect 91 0 90 1;
#X connect 91 0 105 1;
#X connect 91 0 106 1;
#X connect 91 0 235 0;
#X connect 92 0 86 1;
#X connect 92 0 87 1;
#X connect 92 0 88 1;
#X connect 92 0 89 1;
#X connect 92 0 90 1;
#X connect 92 0 91 1;
#X connect 92 0 105 1;
#X connect 92 0 106 1;
#X connect 93 0 86 0;
#X connect 94 0 87 0;
#X connect 95 0 88 0;
#X connect 96 0 89 0;
#X connect 97 0 90 0;
#X connect 98 0 91 0;
#X connect 99 0 93 0;
#X connect 99 1 100 0;
#X connect 100 0 94 0;
#X connect 100 1 101 0;
#X connect 101 0 95 0;
#X connect 101 1 102 0;
#X connect 102 0 96 0;
#X connect 102 1 103 0;
#X connect 103 0 97 0;
#X connect 103 1 104 0;
#X connect 104 0 98 0;
#X connect 104 1 109 0;
#X connect 105 0 86 1;
#X connect 105 0 87 1;
#X connect 105 0 88 1;
#X connect 105 0 89 1;
#X connect 105 0 90 1;
#X connect 105 0 91 1;
#X connect 105 0 106 1;
#X connect 105 0 236 0;
#X connect 106 0 237 0;
#X connect 106 0 86 1;
#X connect 106 0 87 1;
#X connect 106 0 88 1;
#X connect 106 0 89 1;
#X connect 106 0 90 1;
#X connect 106 0 91 1;
#X connect 106 0 105 1;
#X connect 107 0 105 0;
#X connect 108 0 106 0;
#X connect 109 0 107 0;
#X connect 109 1 108 0;
#X connect 110 0 116 0;
#X connect 110 0 229 0;
#X connect 111 0 112 0;
#X connect 112 0 114 0;
#X connect 112 1 113 1;
#X connect 113 0 115 0;
#X connect 114 0 113 0;
#X connect 115 0 228 0;
#X connect 116 0 61 0;
#X connect 116 0 166 0;
#X connect 116 0 165 0;
#X connect 116 0 14 0;
#X connect 119 0 120 0;
#X connect 120 0 121 0;
#X connect 121 0 117 0;
#X connect 122 0 110 1;
#X connect 124 0 125 0;
#X connect 125 0 126 0;
#X connect 126 0 122 0;
#X connect 127 0 130 0;
#X connect 127 1 128 0;
#X connect 128 0 131 0;
#X connect 129 0 126 0;
#X connect 130 0 129 0;
#X connect 131 0 126 0;
#X connect 132 0 135 0;
#X connect 133 0 134 0;
#X connect 134 0 116 1;
#X connect 135 0 133 0;
#X connect 138 0 139 0;
#X connect 139 0 140 0;
#X connect 141 0 142 0;
#X connect 142 0 143 0;
#X connect 144 0 145 0;
#X connect 145 0 146 0;
#X connect 147 0 148 0;
#X connect 148 0 154 0;
#X connect 148 0 136 0;
#X connect 149 0 150 0;
#X connect 150 0 152 0;
#X connect 150 1 151 1;
#X connect 151 0 153 0;
#X connect 152 0 151 0;
#X connect 153 0 164 0;
#X connect 154 0 61 0;
#X connect 154 0 165 0;
#X connect 154 0 166 0;
#X connect 154 0 14 0;
#X connect 155 0 147 1;
#X connect 157 0 158 0;
#X connect 158 0 159 0;
#X connect 159 0 155 0;
#X connect 160 0 161 0;
#X connect 161 0 162 0;
#X connect 164 0 147 0;
#X connect 165 0 163 0;
#X connect 165 0 160 0;
#X connect 166 0 163 1;
#X connect 166 0 141 0;
#X connect 167 0 165 1;
#X connect 167 0 166 1;
#X connect 169 0 168 0;
#X connect 169 1 170 0;
#X connect 171 0 110 0;
#X connect 172 0 178 0;
#X connect 172 0 137 0;
#X connect 173 0 174 0;
#X connect 174 0 176 0;
#X connect 174 1 175 1;
#X connect 175 0 177 0;
#X connect 176 0 175 0;
#X connect 177 0 184 0;
#X connect 178 0 61 0;
#X connect 178 0 14 0;
#X connect 178 0 165 0;
#X connect 178 0 166 0;
#X connect 181 0 182 0;
#X connect 182 0 183 0;
#X connect 183 0 179 0;
#X connect 184 0 185 0;
#X connect 185 0 172 0;
#X connect 187 0 172 1;
#X connect 189 0 190 0;
#X connect 190 0 191 0;
#X connect 191 0 187 0;
#X connect 192 0 195 0;
#X connect 192 1 193 0;
#X connect 193 0 196 0;
#X connect 194 0 191 0;
#X connect 195 0 194 0;
#X connect 196 0 191 0;
#X connect 197 0 200 0;
#X connect 198 0 199 0;
#X connect 199 0 178 1;
#X connect 200 0 198 0;
#X connect 201 0 173 0;
#X connect 202 0 201 0;
#X connect 203 0 201 0;
#X connect 204 0 203 0;
#X connect 204 0 205 1;
#X connect 204 0 206 1;
#X connect 204 0 207 1;
#X connect 204 0 208 1;
#X connect 204 0 209 1;
#X connect 204 0 223 1;
#X connect 204 0 224 1;
#X connect 205 0 202 0;
#X connect 205 0 204 1;
#X connect 205 0 206 1;
#X connect 205 0 207 1;
#X connect 205 0 208 1;
#X connect 205 0 209 1;
#X connect 205 0 223 1;
#X connect 205 0 224 1;
#X connect 206 0 204 1;
#X connect 206 0 205 1;
#X connect 206 0 207 1;
#X connect 206 0 208 1;
#X connect 206 0 209 1;
#X connect 206 0 223 1;
#X connect 206 0 224 1;
#X connect 206 0 238 0;
#X connect 207 0 239 0;
#X connect 207 0 204 1;
#X connect 207 0 205 1;
#X connect 207 0 206 1;
#X connect 207 0 208 1;
#X connect 207 0 209 1;
#X connect 207 0 223 1;
#X connect 207 0 224 1;
#X connect 208 0 240 0;
#X connect 208 0 204 1;
#X connect 208 0 205 1;
#X connect 208 0 206 1;
#X connect 208 0 207 1;
#X connect 208 0 209 1;
#X connect 208 0 223 1;
#X connect 208 0 224 1;
#X connect 209 0 204 1;
#X connect 209 0 205 1;
#X connect 209 0 206 1;
#X connect 209 0 207 1;
#X connect 209 0 208 1;
#X connect 209 0 223 1;
#X connect 209 0 224 1;
#X connect 209 0 241 0;
#X connect 210 0 204 1;
#X connect 210 0 205 1;
#X connect 210 0 206 1;
#X connect 210 0 207 1;
#X connect 210 0 208 1;
#X connect 210 0 209 1;
#X connect 210 0 223 1;
#X connect 210 0 224 1;
#X connect 211 0 204 0;
#X connect 212 0 205 0;
#X connect 213 0 206 0;
#X connect 214 0 207 0;
#X connect 215 0 208 0;
#X connect 216 0 209 0;
#X connect 217 0 211 0;
#X connect 217 1 218 0;
#X connect 218 0 212 0;
#X connect 218 1 219 0;
#X connect 219 0 213 0;
#X connect 219 1 220 0;
#X connect 220 0 214 0;
#X connect 220 1 221 0;
#X connect 221 0 215 0;
#X connect 221 1 222 0;
#X connect 222 0 216 0;
#X connect 222 1 227 0;
#X connect 223 0 204 1;
#X connect 223 0 205 1;
#X connect 223 0 206 1;
#X connect 223 0 207 1;
#X connect 223 0 208 1;
#X connect 223 0 209 1;
#X connect 223 0 224 1;
#X connect 223 0 242 0;
#X connect 224 0 243 0;
#X connect 224 0 204 1;
#X connect 224 0 205 1;
#X connect 224 0 206 1;
#X connect 224 0 207 1;
#X connect 224 0 208 1;
#X connect 224 0 209 1;
#X connect 224 0 223 1;
#X connect 225 0 223 0;
#X connect 226 0 224 0;
#X connect 227 0 225 0;
#X connect 227 1 226 0;
#X connect 228 0 171 0;
#X connect 230 0 85 0;
#X connect 231 0 85 0;
#X connect 232 0 85 0;
#X connect 233 0 85 0;
#X connect 234 0 85 0;
#X connect 235 0 85 0;
#X connect 236 0 85 0;
#X connect 237 0 85 0;
#X connect 238 0 201 0;
#X connect 239 0 201 0;
#X connect 240 0 201 0;
#X connect 241 0 201 0;
#X connect 242 0 201 0;
#X connect 243 0 201 0;
#X connect 244 0 0 0;
#X connect 245 0 0 0;
#X connect 246 0 0 0;
#X connect 247 0 0 0;
#X connect 248 0 0 0;
#X connect 249 0 0 0;
#X connect 250 0 0 0;
#X connect 251 0 0 0;
