#N canvas 725 119 1726 1061 10;
#X obj 1466 53 r N1;
#X obj 1466 79 r L1;
#X obj 1466 105 r Y1;
#X obj 1527 161 r X1.1;
#X obj 1527 189 r X1.2;
#X obj 1527 218 r X1.3;
#X obj 1581 188 r S1.2;
#X obj 1581 217 r S1.3;
#X text 1498 53 Number of fingers pressed;
#X text 1499 79 Last finger pressed;
#X text 1501 106 Overall Y position;
#X text 1579 139 Touch size;
#X text 1467 163 Finger 1;
#X text 1467 190 Finger 2;
#X text 1468 219 Finger 3;
#X text 1463 29 SENSOR 1;
#X text 1469 247 -------------------------------;
#X text 1525 139 X pos;
#X text 1507 295 Number of fingers pressed;
#X text 1508 321 Last finger pressed;
#X text 1510 348 Overall Y position;
#X text 1588 381 Touch size;
#X text 1476 405 Finger 1;
#X text 1476 432 Finger 2;
#X text 1477 461 Finger 3;
#X text 1472 366 -------------------------------;
#X text 1534 381 X pos;
#X text 1472 271 SENSOR 2;
#X obj 1475 295 r N2;
#X obj 1475 321 r L2;
#X obj 1475 347 r Y2;
#X obj 1536 403 r X2.1;
#X obj 1536 431 r X2.2;
#X obj 1536 460 r X2.3;
#X obj 1590 402 r S2.1;
#X obj 1590 430 r S2.2;
#X obj 1590 459 r S2.3;
#X text 1512 522 Number of fingers pressed;
#X text 1513 548 Last finger pressed;
#X text 1515 575 Overall Y position;
#X text 1593 608 Touch size;
#X text 1481 632 Finger 1;
#X text 1481 659 Finger 2;
#X text 1482 688 Finger 3;
#X text 1477 593 -------------------------------;
#X text 1539 608 X pos;
#X text 1519 748 Number of fingers pressed;
#X text 1520 774 Last finger pressed;
#X text 1522 801 Overall Y position;
#X text 1600 834 Touch size;
#X text 1488 858 Finger 1;
#X text 1488 885 Finger 2;
#X text 1489 914 Finger 3;
#X text 1484 819 -------------------------------;
#X text 1546 834 X pos;
#X text 1477 498 SENSOR 3;
#X text 1484 724 SENSOR 4;
#X obj 1480 522 r N3;
#X obj 1480 548 r L3;
#X obj 1480 574 r Y3;
#X obj 1541 630 r X3.1;
#X obj 1541 658 r X3.2;
#X obj 1541 687 r X3.3;
#X obj 1595 629 r S3.1;
#X obj 1595 657 r S3.2;
#X obj 1595 686 r S3.3;
#X obj 1487 748 r N4;
#X obj 1487 774 r L4;
#X obj 1487 800 r Y4;
#X obj 1548 856 r X4.1;
#X obj 1548 884 r X4.2;
#X obj 1547 913 r X4.3;
#X obj 1602 855 r S4.1;
#X obj 1602 883 r S4.2;
#X obj 1602 912 r S4.3;
#X obj 67 657 dac~, f 6;
#X obj 349 324 mtof;
#X obj 349 346 t b f;
#X obj 349 390 /;
#X msg 349 368 1;
#X obj 349 412 * 1000;
#X msg 349 301 60;
#X obj 14 36 adc~;
#X obj 349 280 bng 15 250 50 0 empty empty empty 17 7 0 10 -262144
-1 -1;
#X obj 349 235 > 0;
#X obj 349 258 sel 1;
#X obj 349 212 change 0;
#X text 1476 481 -------------------------------;
#X text 1480 705 -------------------------------;
#X text 1463 124 -------------------------------;
#X obj 219 125 tabwrite~ buffer;
#X obj 248 482 tabread~ buffer;
#X obj 248 459 line~;
#X obj 284 277 bng 15 250 50 0 empty empty empty 17 7 0 10 -262144
-1 -1;
#X obj 284 209 change 1;
#X obj 284 255 sel 1;
#X obj 284 232 < 1;
#X obj 248 504 *~ 1;
#X obj 218 81 tgl 15 0 empty empty empty 17 7 0 10 -262144 -1 -1 1
1;
#X obj 218 60 loadbang;
#X obj 349 435 vd~ deli2 12;
#X obj 248 528 delwrite~ deli2 1000;
#X obj 101 322 mtof;
#X obj 101 344 t b f;
#X obj 101 388 /;
#X msg 101 366 1;
#X obj 101 410 * 1000;
#X msg 101 299 60;
#X obj 101 502 s~ output1;
#X obj 101 278 bng 15 250 50 0 empty empty empty 17 7 0 10 -262144
-1 -1;
#X obj 101 233 > 0;
#X obj 101 256 sel 1;
#X obj 101 210 change 0;
#X obj 349 504 s~ output2;
#X obj 35 526 delwrite~ deli1 1000;
#X obj 101 433 vd~ deli1 12;
#X obj 349 482 *~ 0.99;
#X obj 70 76 *~ 8;
#X obj 31 119 *~ 4;
#X obj 1580 161 r S1.1;
#X obj 349 459 lop~ 6000;
#X obj 101 457 lop~ 6000;
#X obj 101 480 *~ 0.95;
#X obj 101 185 r N1;
#X obj 349 187 r N1;
#X obj 135 565 r~ output2;
#X obj 68 565 r~ output1;
#X obj 35 502 *~ 1;
#X obj 43 408 > 0;
#X obj 43 431 sel 1;
#X obj 43 385 change 0;
#X obj 43 360 r N1;
#X msg 43 457 1;
#X msg 70 457 0;
#X obj 202 324 abs;
#X msg 202 368 set \$1;
#X floatatom 202 390 5 0 0 0 - - -, f 5;
#X obj 139 610 rev3~ 100 70 4000 0;
#X obj 264 300 r speedY;
#X obj 202 300 r speedX;
#X obj 264 325 abs;
#X obj 202 347 +;
#X obj 202 409 expr 1.3 - $f1;
#X obj 202 459 + 2205;
#X obj 202 435 * 5000;
#X obj 218 100 metro 100;
#X obj 219 147 table buffer 8820;
#X msg 248 435 0 \, 8820 \$1;
#X obj 202 482 / 1000;
#X connect 76 0 77 0;
#X connect 77 0 79 0;
#X connect 77 1 78 1;
#X connect 78 0 80 0;
#X connect 79 0 78 0;
#X connect 80 0 100 0;
#X connect 81 0 76 0;
#X connect 82 1 117 0;
#X connect 82 1 118 0;
#X connect 83 0 81 0;
#X connect 84 0 85 0;
#X connect 85 0 83 0;
#X connect 86 0 84 0;
#X connect 91 0 97 0;
#X connect 92 0 91 0;
#X connect 93 0 136 0;
#X connect 94 0 96 0;
#X connect 95 0 93 0;
#X connect 96 0 95 0;
#X connect 97 0 101 0;
#X connect 98 0 145 0;
#X connect 99 0 98 0;
#X connect 100 0 120 0;
#X connect 102 0 103 0;
#X connect 103 0 105 0;
#X connect 103 1 104 1;
#X connect 104 0 106 0;
#X connect 105 0 104 0;
#X connect 106 0 115 0;
#X connect 107 0 102 0;
#X connect 109 0 107 0;
#X connect 110 0 111 0;
#X connect 111 0 109 0;
#X connect 112 0 110 0;
#X connect 115 0 121 0;
#X connect 116 0 101 0;
#X connect 116 0 113 0;
#X connect 117 0 90 0;
#X connect 118 0 127 0;
#X connect 120 0 116 0;
#X connect 121 0 122 0;
#X connect 122 0 108 0;
#X connect 122 0 114 0;
#X connect 123 0 112 0;
#X connect 124 0 86 0;
#X connect 124 0 94 0;
#X connect 125 0 75 0;
#X connect 125 0 75 1;
#X connect 125 0 137 0;
#X connect 126 0 75 0;
#X connect 126 0 75 1;
#X connect 126 0 137 0;
#X connect 127 0 114 0;
#X connect 128 0 129 0;
#X connect 129 0 132 0;
#X connect 129 1 133 0;
#X connect 130 0 128 0;
#X connect 131 0 130 0;
#X connect 132 0 127 1;
#X connect 133 0 127 1;
#X connect 134 0 141 0;
#X connect 135 0 136 0;
#X connect 136 0 142 0;
#X connect 137 0 75 0;
#X connect 137 0 75 1;
#X connect 138 0 140 0;
#X connect 139 0 134 0;
#X connect 140 0 141 1;
#X connect 141 0 135 0;
#X connect 142 0 144 0;
#X connect 143 0 148 0;
#X connect 144 0 143 0;
#X connect 145 0 90 0;
#X connect 147 0 92 0;
#X connect 148 0 147 0;
